<svg width="36" height="36" viewBox="0 0 36 36" fill="none" xmlns="http://www.w3.org/2000/svg">
<path d="M28.6319 7.43179C28.621 7.42008 28.6177 7.40451 28.6062 7.39306C28.5948 7.38162 28.5789 7.37814 28.5671 7.36707C25.7614 4.5704 21.9615 3 18 3C14.0385 3 10.2386 4.5704 7.4329 7.36707C7.42109 7.37814 7.40534 7.38153 7.39381 7.39306C7.38227 7.4046 7.37906 7.42006 7.36808 7.43179C5.27747 9.53243 3.85598 12.2053 3.28301 15.113C2.71003 18.0208 3.01127 21.0331 4.14868 23.7698C5.2861 26.5065 7.20873 28.845 9.67391 30.49C12.1391 32.1351 15.0363 33.013 18 33.013C20.9637 33.013 23.8609 32.1351 26.3261 30.49C28.7913 28.845 30.7139 26.5065 31.8513 23.7698C32.9887 21.0331 33.29 18.0208 32.717 15.113C32.144 12.2053 30.7225 9.53243 28.6319 7.43179ZM17.9999 30C16.2033 29.9994 14.4299 29.5946 12.8109 28.8157C11.192 28.0367 9.76902 26.9035 8.64743 25.5H14.6703C15.0875 25.9715 15.6 26.3491 16.174 26.6077C16.748 26.8663 17.3704 27 17.9999 27C18.6295 27 19.2519 26.8663 19.8259 26.6077C20.3999 26.3491 20.9124 25.9715 21.3295 25.5H27.3525C26.2309 26.9035 24.8079 28.0367 23.189 28.8157C21.57 29.5947 19.7965 29.9994 17.9999 30ZM16.4999 22.5C16.4999 22.2033 16.5879 21.9133 16.7527 21.6666C16.9175 21.42 17.1518 21.2277 17.4259 21.1142C17.7 21.0006 18.0016 20.9709 18.2926 21.0288C18.5835 21.0867 18.8508 21.2296 19.0606 21.4393C19.2704 21.6491 19.4132 21.9164 19.4711 22.2074C19.529 22.4983 19.4993 22.7999 19.3857 23.074C19.2722 23.3481 19.08 23.5824 18.8333 23.7472C18.5866 23.912 18.2966 24 17.9999 24C17.6022 23.9996 17.2209 23.8414 16.9397 23.5602C16.6585 23.279 16.5003 22.8977 16.4999 22.5ZM29.1153 22.5031L29.0998 22.5H22.4999C22.4971 21.5724 22.2072 20.6685 21.67 19.9122C21.1329 19.156 20.3748 18.5846 19.4999 18.2764V13.5C19.4999 13.1022 19.3419 12.7206 19.0606 12.4393C18.7793 12.158 18.3978 12 17.9999 12C17.6021 12 17.2206 12.158 16.9393 12.4393C16.658 12.7206 16.4999 13.1022 16.4999 13.5V18.2764C15.625 18.5846 14.867 19.156 14.3298 19.9122C13.7927 20.6685 13.5028 21.5724 13.4999 22.5H6.90008L6.8846 22.5031C6.49445 21.5404 6.23206 20.5308 6.10412 19.5H7.49993C7.89776 19.5 8.27929 19.342 8.56059 19.0607C8.8419 18.7794 8.99993 18.3978 8.99993 18C8.99993 17.6022 8.8419 17.2206 8.56059 16.9393C8.27929 16.658 7.89776 16.5 7.49993 16.5H6.10412C6.37215 14.3679 7.21126 12.3477 8.53274 10.6532L9.51482 11.6353C9.6541 11.7745 9.81944 11.885 10.0014 11.9604C10.1834 12.0358 10.3784 12.0745 10.5754 12.0745C10.7723 12.0745 10.9674 12.0358 11.1493 11.9604C11.3313 11.885 11.4966 11.7745 11.6359 11.6353C11.7752 11.496 11.8857 11.3306 11.961 11.1487C12.0364 10.9667 12.0752 10.7717 12.0752 10.5747C12.0752 10.3777 12.0364 10.1827 11.961 10.0007C11.8857 9.81877 11.7752 9.65343 11.6359 9.51415L10.6539 8.53216C12.3484 7.21112 14.3682 6.37225 16.4999 6.10419V7.5C16.4999 7.89782 16.658 8.27935 16.9393 8.56066C17.2206 8.84196 17.6021 9 17.9999 9C18.3978 9 18.7793 8.84196 19.0606 8.56066C19.3419 8.27935 19.4999 7.89782 19.4999 7.5V6.10419C21.6317 6.37225 23.6515 7.21112 25.3459 8.53216L24.364 9.51415C24.0827 9.79543 23.9247 10.1769 23.9247 10.5747C23.9247 10.9725 24.0827 11.354 24.3639 11.6353C24.6452 11.9165 25.0267 12.0745 25.4245 12.0745C25.8223 12.0745 26.2038 11.9165 26.485 11.6353L27.4671 10.6532C28.7886 12.3477 29.6277 14.3679 29.8957 16.5H28.4999C28.1021 16.5 27.7206 16.658 27.4393 16.9393C27.158 17.2206 26.9999 17.6022 26.9999 18C26.9999 18.3978 27.158 18.7794 27.4393 19.0607C27.7206 19.342 28.1021 19.5 28.4999 19.5H29.8957C29.7678 20.5308 29.5054 21.5404 29.1153 22.5031Z" fill="black"/>
</svg>
