<svg width="27" height="30" viewBox="0 0 27 30" fill="none" xmlns="http://www.w3.org/2000/svg">
<path d="M2.66991 17.3375C2.4176 17.3383 2.17022 17.2676 1.95652 17.1334C1.74281 16.9993 1.57156 16.8073 1.46264 16.5797C1.35373 16.3521 1.31164 16.0982 1.34124 15.8477C1.37085 15.5971 1.47095 15.3601 1.62991 15.1641L14.8299 1.56412C14.9289 1.44983 15.0639 1.3726 15.2126 1.3451C15.3613 1.3176 15.5149 1.34147 15.6482 1.4128C15.7816 1.48412 15.8867 1.59865 15.9464 1.7376C16.006 1.87655 16.0167 2.03165 15.9766 2.17746L13.4166 10.2041C13.3411 10.4062 13.3157 10.6235 13.3427 10.8375C13.3697 11.0514 13.4481 11.2557 13.5714 11.4327C13.6946 11.6097 13.8589 11.7541 14.0503 11.8537C14.2416 11.9532 14.4542 12.0048 14.6699 12.0041H24.0032C24.2556 12.0033 24.5029 12.074 24.7166 12.2082C24.9303 12.3423 25.1016 12.5343 25.2105 12.7619C25.3194 12.9895 25.3615 13.2433 25.3319 13.4939C25.3023 13.7445 25.2022 13.9815 25.0432 14.1775L11.8432 27.7775C11.7442 27.8917 11.6093 27.969 11.4606 27.9965C11.3119 28.024 11.1583 28.0001 11.0249 27.9288C10.8916 27.8575 10.7865 27.7429 10.7268 27.604C10.6671 27.465 10.6565 27.3099 10.6966 27.1641L13.2566 19.1375C13.3321 18.9354 13.3574 18.7181 13.3305 18.5041C13.3035 18.2901 13.225 18.0859 13.1018 17.9089C12.9786 17.7319 12.8142 17.5874 12.6229 17.4879C12.4315 17.3884 12.2189 17.3368 12.0032 17.3375H2.66991Z" stroke="black" stroke-width="2.66667" stroke-linecap="round" stroke-linejoin="round"/>
</svg>
