<svg width="54" height="54" viewBox="0 0 54 54" fill="none" xmlns="http://www.w3.org/2000/svg">
<path opacity="0.2" d="M4.61751 14.2689H14.7418C13.736 17.9433 13.1606 22.1131 13.1606 26.5416H14.5143C14.5143 22.0872 15.0953 17.9045 16.103 14.2689H26.3213V26.5416H27.675V14.2689H37.8933C38.901 17.9045 39.4819 22.0872 39.4819 26.5416H40.8375C40.8375 22.1131 40.2622 17.9433 39.2582 14.2689H49.3806C51.4525 17.9045 52.6445 22.0872 52.6445 26.5416H54C54 11.9068 41.8885 0 27.0019 0C12.1153 0 0 11.9068 0 26.5416H1.35367C1.35367 22.0872 2.54564 17.9045 4.61751 14.2689ZM16.5034 12.9381C18.611 6.32859 22.202 1.8483 26.3213 1.39916V12.9381H16.5034ZM27.675 12.9381V1.39916C31.7942 1.8483 35.3833 6.32859 37.4928 12.9381H27.675ZM48.5553 12.9381H38.8577C37.2841 7.91258 34.8757 3.96831 31.9935 1.81873C38.9292 3.17169 44.8515 7.28601 48.5553 12.9381ZM22.0027 1.81873C19.1224 3.96831 16.7121 7.91258 15.1404 12.9381H5.44099C9.14477 7.28601 15.0671 3.17169 22.0027 1.81873ZM39.4819 32.0865V33.0846L32.6384 31.4211H27.47C26.3946 31.4211 25.3568 31.8056 24.5502 32.5024L23.6591 33.2694H14.5143V32.0865C14.5143 31.7187 14.2116 31.4211 13.8375 31.4211H0.676833V32.7538H13.1606V48.0559H0.676833V49.3885H13.8375C14.2116 49.3885 14.5143 49.0909 14.5143 48.7231V47.5402H16.3079L20.3464 53.1627C20.8502 53.7154 21.5496 54 22.2546 54C22.766 54 23.2793 53.8503 23.7249 53.5416L24.9338 52.7062C25.0052 52.7321 25.0616 52.7838 25.1368 52.8041C25.3568 52.8596 25.5787 52.8892 25.7986 52.8892C26.2423 52.8892 26.6804 52.7746 27.0733 52.5491L28.6376 51.6619C28.9233 51.7654 29.2185 51.8375 29.525 51.8375C29.9574 51.8375 30.3973 51.7284 30.7997 51.5011L32.3658 50.6121C32.6516 50.7156 32.9467 50.7877 33.2532 50.7877C33.6856 50.7877 34.1274 50.6786 34.5298 50.4513C35.5864 49.8506 35.9925 48.6214 35.6447 47.5383H39.4838V48.7212C39.4838 49.0891 39.7865 49.3866 40.1606 49.3866H53.3213V48.0559H40.8375V32.7519H53.3194V31.4211H40.1588C39.7846 31.4211 39.4819 31.7187 39.4819 32.0865ZM33.8511 49.2998C33.2776 49.6251 32.5369 49.431 32.206 48.8673L29.3858 44.0654L28.2127 44.7289L31.1644 49.7563L30.1228 50.3459C29.5475 50.6768 28.8105 50.479 28.4778 49.9153L26.5977 46.714L26.1276 45.9137L24.9563 46.5772L25.4264 47.3757L27.3065 50.5769L27.3102 50.5806L27.4399 50.8006L26.3965 51.392C26.122 51.551 25.7986 51.5917 25.4884 51.5103C25.1782 51.429 24.9206 51.2349 24.7589 50.9651L22.8751 47.7583L21.7019 48.4218L23.582 51.6231L23.5858 51.6286L23.7437 51.8966L22.9465 52.4493C22.4483 52.7949 21.7658 52.7173 21.4048 52.331L17.2122 46.4867C17.0844 46.3092 16.8795 46.2039 16.6595 46.2039H14.5143V34.6002H22.1099L18.564 37.6499C18.3008 37.8736 18.1429 38.1989 18.1316 38.5389C18.1184 38.8809 18.2519 39.2154 18.5001 39.4576C20.1019 41.0323 22.6438 41.1691 24.4111 39.7792L26.2968 38.295H29.4046L34.291 47.6807C34.62 48.2481 34.4226 48.9745 33.8511 49.2998ZM35.0393 46.2076L30.4199 37.3283C30.3033 37.1065 30.0702 36.966 29.8183 36.966H26.0581C25.9039 36.966 25.7554 37.0178 25.6351 37.1121L23.5632 38.7423C22.3355 39.7071 20.572 39.6147 19.4533 38.6535L25.4414 33.5023C26.0017 33.0181 26.7217 32.7538 27.47 32.7538L32.4748 32.7334L39.4819 34.4561V46.2076H35.0393Z" fill="black"/>
</svg>
