<svg width="49" height="49" viewBox="0 0 49 49" fill="none" xmlns="http://www.w3.org/2000/svg">
<path d="M0 14.5C0 6.49187 6.49187 0 14.5 0H34.5C42.5081 0 49 6.49187 49 14.5V34.5C49 42.5081 42.5081 49 34.5 49H14.5C6.49187 49 0 42.5081 0 34.5V14.5Z" fill="#F6754F"/>
<path d="M18.375 34.7096V16.3346C18.375 15.7932 18.5901 15.2738 18.973 14.891C19.3559 14.5081 19.8752 14.293 20.4167 14.293H28.5833C29.1248 14.293 29.6441 14.5081 30.027 14.891C30.4099 15.2738 30.625 15.7932 30.625 16.3346V34.7096H18.375Z" stroke="white" stroke-width="2.04167" stroke-linecap="round" stroke-linejoin="round"/>
<path opacity="0.4" d="M18.3763 24.5H16.3346C15.7932 24.5 15.2738 24.7151 14.891 25.098C14.5081 25.4809 14.293 26.0002 14.293 26.5417V32.6667C14.293 33.2081 14.5081 33.7275 14.891 34.1103C15.2738 34.4932 15.7932 34.7083 16.3346 34.7083H18.3763" stroke="white" stroke-width="2.04167" stroke-linecap="round" stroke-linejoin="round"/>
<path opacity="0.4" d="M30.625 21.4375H32.6667C33.2082 21.4375 33.7275 21.6526 34.1103 22.0355C34.4932 22.4184 34.7083 22.9377 34.7083 23.4792V32.6667C34.7083 33.2081 34.4932 33.7275 34.1103 34.1103C33.7275 34.4932 33.2082 34.7083 32.6667 34.7083H30.625" stroke="white" stroke-width="2.04167" stroke-linecap="round" stroke-linejoin="round"/>
<path d="M22.457 18.375H26.5404" stroke="white" stroke-width="2.04167" stroke-linecap="round" stroke-linejoin="round"/>
<path d="M22.457 22.457H26.5404" stroke="white" stroke-width="2.04167" stroke-linecap="round" stroke-linejoin="round"/>
<path d="M22.457 26.543H26.5404" stroke="white" stroke-width="2.04167" stroke-linecap="round" stroke-linejoin="round"/>
<path d="M22.457 30.625H26.5404" stroke="white" stroke-width="2.04167" stroke-linecap="round" stroke-linejoin="round"/>
</svg>
