<svg width="49" height="49" viewBox="0 0 49 49" fill="none" xmlns="http://www.w3.org/2000/svg">
<path d="M0 14.5C0 6.49187 6.49187 0 14.5 0H34.5C42.5081 0 49 6.49187 49 14.5V34.5C49 42.5081 42.5081 49 34.5 49H14.5C6.49187 49 0 42.5081 0 34.5V14.5Z" fill="#6C79E2"/>
<path opacity="0.5" d="M34.7096 19.3945L25.5313 25.2408C25.2199 25.4217 24.8661 25.517 24.5059 25.517C24.1457 25.517 23.7919 25.4217 23.4805 25.2408L14.293 19.3945" stroke="white" stroke-width="2.04167" stroke-linecap="round" stroke-linejoin="round"/>
<path d="M32.668 16.332H16.3346C15.2071 16.332 14.293 17.2461 14.293 18.3737V30.6237C14.293 31.7513 15.2071 32.6654 16.3346 32.6654H32.668C33.7955 32.6654 34.7096 31.7513 34.7096 30.6237V18.3737C34.7096 17.2461 33.7955 16.332 32.668 16.332Z" stroke="white" stroke-width="2.04167" stroke-linecap="round" stroke-linejoin="round"/>
</svg>
