<svg width="49" height="49" viewBox="0 0 49 49" fill="none" xmlns="http://www.w3.org/2000/svg">
<path d="M0 14.5C0 6.49187 6.49187 0 14.5 0H34.5C42.5081 0 49 6.49187 49 14.5V34.5C49 42.5081 42.5081 49 34.5 49H14.5C6.49187 49 0 42.5081 0 34.5V14.5Z" fill="#676767"/>
<path opacity="0.5" d="M24.5 32.668H33.6875" stroke="white" stroke-width="2.04167" stroke-linecap="round" stroke-linejoin="round"/>
<path d="M28.9661 15.9472C29.3725 15.5408 29.9237 15.3125 30.4984 15.3125C31.0731 15.3125 31.6243 15.5408 32.0307 15.9472C32.4371 16.3536 32.6654 16.9047 32.6654 17.4795C32.6654 18.0542 32.4371 18.6053 32.0307 19.0117L19.7705 31.273C19.5276 31.5158 19.2274 31.6935 18.8977 31.7895L15.9658 32.645C15.878 32.6706 15.7849 32.6721 15.6962 32.6494C15.6076 32.6267 15.5267 32.5806 15.462 32.5159C15.3973 32.4512 15.3512 32.3703 15.3285 32.2816C15.3058 32.193 15.3073 32.0999 15.3329 32.012L16.1884 29.0802C16.2846 28.7508 16.4622 28.451 16.7049 28.2084L28.9661 15.9472Z" stroke="white" stroke-width="2.04167" stroke-linecap="round" stroke-linejoin="round"/>
</svg>
