<svg width="44" height="44" viewBox="0 0 44 44" fill="none" xmlns="http://www.w3.org/2000/svg">
<mask id="path-1-inside-1_688_10571" fill="white">
<path d="M0 14C0 6.26801 6.26801 0 14 0H30C37.732 0 44 6.26801 44 14V30C44 37.732 37.732 44 30 44H14C6.26801 44 0 37.732 0 30V14Z"/>
</mask>
<path d="M0 14C0 6.26801 6.26801 0 14 0H30C37.732 0 44 6.26801 44 14V30C44 37.732 37.732 44 30 44H14C6.26801 44 0 37.732 0 30V14Z" fill="#F5A67C" fill-opacity="0.2"/>
<path d="M14 0V1H30V0V-1H14V0ZM44 14H43V30H44H45V14H44ZM30 44V43H14V44V45H30V44ZM0 30H1V14H0H-1V30H0ZM14 44V43C6.8203 43 1 37.1797 1 30H0H-1C-1 38.2843 5.71573 45 14 45V44ZM44 30H43C43 37.1797 37.1797 43 30 43V44V45C38.2843 45 45 38.2843 45 30H44ZM30 0V1C37.1797 1 43 6.8203 43 14H44H45C45 5.71573 38.2843 -1 30 -1V0ZM14 0V-1C5.71573 -1 -1 5.71573 -1 14H0H1C1 6.8203 6.8203 1 14 1V0Z" fill="#FFA888" fill-opacity="0.3" mask="url(#path-1-inside-1_688_10571)"/>
<path d="M31.1703 13.3784C29.7253 13.3784 28.4582 14.154 27.7629 15.311V11.5301C27.7629 8.48088 25.2823 6 22.2329 6C19.1834 6 16.7028 8.48088 16.7028 11.5301V19.9786C16.2994 18.2134 14.7164 16.8919 12.8306 16.8919C10.6407 16.8919 8.85938 18.6734 8.85938 20.8637V22.9402C8.85888 23.9523 9.05819 24.9361 9.45081 25.8638C10.0183 27.204 10.9568 28.3446 12.1651 29.162C13.4053 30.0019 14.8565 30.4466 16.3612 30.4466H16.7028V36.6785V38H18.0243H26.4416H27.7628V36.6785V28.8032C28.75 28.7979 29.7077 28.6012 30.6123 28.2184C31.9379 27.6572 33.0654 26.7296 33.8719 25.5361C34.7039 24.3076 35.1431 22.8715 35.1414 21.3841V17.35C35.1414 15.1599 33.3602 13.3784 31.1703 13.3784ZM33.8199 21.3851C33.8211 22.6389 33.434 23.8261 32.7771 24.796C32.1204 25.7679 31.1951 26.5367 30.0974 27.0021C29.3674 27.311 28.5606 27.4817 27.7269 27.4817H27.7238H26.4416V36.6784H18.0243V29.1251H16.3656H16.3613C15.0916 29.1251 13.8888 28.7332 12.9055 28.0674C11.9205 27.4011 11.1393 26.4619 10.6678 25.3481C10.3539 24.607 10.1804 23.7867 10.1809 22.9401V20.8636C10.1809 19.4001 11.3672 18.2134 12.8307 18.2134C14.2944 18.2134 15.4809 19.4001 15.4809 20.8636V22.9401C15.4821 23.1325 15.5346 23.2889 15.6301 23.4333C15.726 23.5758 16.7477 23.6918 16.9029 23.7566C17.0074 23.8007 16.2361 23.8252 16.3656 23.8252H18.0244V11.5301C18.0244 9.20563 19.9085 7.3215 22.233 7.3215C24.5575 7.3215 26.4416 9.20563 26.4416 11.5301V22.1817H27.7238C27.8979 22.1812 28.0366 22.1337 28.1668 22.0479C28.2955 21.9616 28.4001 21.8344 28.4584 21.6949C28.4979 21.6014 28.5201 21.5031 28.5201 21.3851V17.3501C28.5201 15.8861 29.7063 14.6999 31.1703 14.6999C32.6335 14.6999 33.8199 15.8861 33.8199 17.3501V21.3851Z" fill="black"/>
<path d="M20.8225 17.1562H19.9414V18.4777H20.8225V17.1562Z" fill="black"/>
<path d="M20.8225 30.3711H19.9414V31.6931H20.8225V30.3711Z" fill="black"/>
<path d="M20.8225 23.7656H19.9414V25.0871H20.8225V23.7656Z" fill="black"/>
<path d="M20.8225 10.5508H19.9414V11.8718H20.8225V10.5508Z" fill="black"/>
<path d="M24.0528 20.6797H23.1719V22.0012H24.0528V20.6797Z" fill="black"/>
<path d="M24.0528 27.2891H23.1719V28.6111H24.0528V27.2891Z" fill="black"/>
<path d="M24.0528 14.0742H23.1719V15.3957H24.0528V14.0742Z" fill="black"/>
<path d="M24.0528 33.8984H23.1719V35.2199H24.0528V33.8984Z" fill="black"/>
<path d="M12.7364 20.4939C12.739 20.4489 12.7419 20.4157 12.7436 20.3937L12.7457 20.3702L12.7462 20.3659L11.8713 20.2656C11.8696 20.2791 11.8438 20.5088 11.8438 20.8787C11.8438 21.1003 11.8533 21.3728 11.8826 21.6788L12.7597 21.5949C12.7333 21.3205 12.7247 21.0759 12.7247 20.8787C12.7246 20.7141 12.7309 20.5822 12.7364 20.4939Z" fill="black"/>
<path d="M14.6602 26.4042C15.0482 26.623 15.4867 26.8057 15.9778 26.9415L16.2126 26.0924C15.7868 25.9744 15.4168 25.819 15.093 25.6367L14.6602 26.4042Z" fill="black"/>
<path d="M30.9609 16.7215L30.9643 16.7402C30.9799 16.8395 31.0499 17.313 31.0823 17.9845L31.9618 17.9423C31.9232 17.1278 31.8321 16.5872 31.8299 16.5742L30.9609 16.7215Z" fill="black"/>
<path d="M29.4336 23.7992L30.0373 24.4409C30.3958 24.1032 30.6896 23.7185 30.9297 23.308L30.1692 22.8633C29.9663 23.2106 29.7235 23.5262 29.4336 23.7992Z" fill="black"/>
</svg>
