<svg width="84" height="95" viewBox="0 0 84 95" fill="none" xmlns="http://www.w3.org/2000/svg">
<path d="M92.4893 48.3517C92.2426 49.1391 92.038 49.9443 91.7393 50.7106C90.7328 53.2837 89.1012 55.485 87.4502 57.6604C83.2715 63.1654 78.2211 67.7402 72.4985 71.5975C72.018 71.9206 71.6267 71.9465 71.0861 71.7485C69.0828 71.0131 67.0552 70.3426 65.0373 69.6445C64.7889 69.5585 64.5502 69.4481 64.0892 69.2581C65.0551 68.9059 65.823 68.6153 66.5957 68.3442C67.9156 67.8815 68.0049 67.7305 67.9886 66.3652C67.9692 64.797 67.9724 63.2255 68.013 61.6573C68.0325 60.8991 67.7516 60.4235 67.0341 60.1767C62.1021 58.4786 57.1767 56.7643 52.2366 55.0889C51.8356 54.9526 51.308 54.9607 50.907 55.097C45.9929 56.761 41.0918 58.464 36.1842 60.1491C35.4407 60.404 35.1322 60.8748 35.1517 61.6751C35.1939 63.3521 35.1907 65.0308 35.1517 66.7077C35.1338 67.5065 35.4277 67.9756 36.1907 68.2192C37.0884 68.5065 37.9667 68.8539 39.0382 69.2419C38.6826 69.4026 38.4878 69.5098 38.28 69.5828C36.1631 70.3247 34.051 71.0796 31.9195 71.7761C31.5964 71.8816 31.1013 71.8361 30.8237 71.6511C23.5459 66.8084 17.4077 60.8326 12.781 53.373C11.8653 51.8956 11.1153 50.3404 10.8264 48.6001C10.8117 48.5092 10.7387 48.4296 10.6916 48.3436C10.6186 48.355 10.5455 48.368 10.4724 48.3793C10.5585 49.2138 10.5877 50.0579 10.7419 50.8794C11.2907 53.8162 12.617 56.4558 14.0131 59.0533C17.6999 65.9171 22.8445 71.5115 29.072 76.1463C29.158 76.2113 29.2441 76.2762 29.3334 76.3379C31.1792 77.6042 30.9876 78.885 29.434 80.213C27.5103 81.8543 25.1563 82.2877 22.7228 81.9809C16.2453 81.1643 11.4351 77.5847 7.63795 72.505C-7.03615 52.8713 0.834193 25.1173 19.3493 10.9757C25.3219 6.41388 32.3172 3.37645 39.5966 1.6053C56.977 -2.62696 72.755 1.5842 86.2895 13.3524C103.494 28.3122 109.646 55.3243 94.4163 73.919C91.1208 77.9434 86.9583 80.7211 81.7958 81.8007C79.2584 82.3316 76.7908 82.1221 74.5018 80.7812C74.2469 80.6318 73.9937 80.463 73.7778 80.2617C72.1073 78.7146 72.1349 77.5701 73.8573 76.3152C79.088 72.505 83.5719 67.9562 87.1077 62.5209C89.3107 59.1329 91.2133 55.5824 92.262 51.6473C92.5429 50.5953 92.5997 49.4832 92.7588 48.3972C92.6679 48.3809 92.577 48.3663 92.4861 48.3501L92.4893 48.3517ZM46.7364 28.3171C46.6553 26.5135 46.2169 24.8446 45.1601 23.3624C42.6974 19.9126 38.181 19.8266 35.5998 23.1887C33.2831 26.2066 33.3789 30.7555 35.8205 33.7214C38.2492 36.6696 42.5042 36.629 44.889 33.6387C46.1358 32.0753 46.6634 30.2701 46.7381 28.3155L46.7364 28.3171ZM63.2694 20.7032C61.2255 20.6951 59.352 21.6692 58.2303 23.2991C56.2675 26.1514 56.0646 29.1889 57.576 32.2717C58.628 34.4179 60.3472 35.8124 62.8343 35.9033C65.2256 35.991 66.9399 34.7588 68.1688 32.8058C69.9871 29.9178 69.7939 25.9079 67.7273 23.1984C66.5503 21.6546 64.9983 20.7795 63.2677 20.7032H63.2694Z" fill="url(#paint0_linear_939_2673)"/>
<path d="M30.9922 87.1219C33.726 86.1819 36.2391 85.2971 38.7732 84.4724C39.0785 84.3734 39.5054 84.5682 39.8544 84.6916C43.4471 85.953 47.0397 87.2144 50.6226 88.5067C51.2703 88.7404 51.8434 88.7485 52.4977 88.5131C56.1552 87.1933 59.8242 85.9027 63.498 84.6299C63.8535 84.5065 64.3097 84.4465 64.6538 84.5585C66.9883 85.3231 69.3066 86.1397 71.6297 86.9433C71.7482 86.9839 71.8553 87.0521 72.0761 87.1592C71.779 87.2907 71.5956 87.3849 71.4024 87.453C65.0662 89.7047 58.7332 91.9613 52.3873 94.1886C51.9619 94.338 51.4035 94.398 50.9927 94.2536C44.5413 92.0035 38.1044 89.7129 31.6659 87.4287C31.5166 87.3751 31.3753 87.2972 30.9938 87.1219H30.9922Z" fill="url(#paint1_linear_939_2673)"/>
<path d="M36.7243 73.2435C39.1107 72.4253 41.2715 71.6639 43.4501 70.961C43.7391 70.8685 44.1384 71.0308 44.4615 71.1428C46.4762 71.8441 48.4941 72.5422 50.4909 73.2939C51.2783 73.5909 51.9861 73.5569 52.7621 73.2646C54.7345 72.5244 56.7183 71.81 58.7216 71.1623C59.2168 71.0016 59.8499 70.9951 60.3467 71.1526C62.324 71.7776 64.2737 72.4951 66.4783 73.263C65.3111 73.6835 64.3712 74.0293 63.4263 74.3637C59.7087 75.6819 55.9959 77.0082 52.2669 78.294C51.8692 78.4304 51.3448 78.4466 50.9519 78.3102C46.3853 76.7225 41.8316 75.0942 37.2762 73.4757C37.1772 73.44 37.0814 73.3945 36.7227 73.2419L36.7243 73.2435Z" fill="url(#paint2_linear_939_2673)"/>
<path d="M39.9336 61.3542C41.8557 60.6886 43.5554 60.0977 45.2552 59.51C47.1676 58.8493 49.0783 58.1804 51.0005 57.5441C51.3138 57.4402 51.7131 57.3866 52.0119 57.4872C55.6158 58.7081 59.2085 59.9613 62.8027 61.2097C62.8725 61.2341 62.9277 61.3007 63.1161 61.4403C61.8482 61.8916 60.6712 62.312 59.4942 62.7293C57.1792 63.5507 54.8593 64.3543 52.5557 65.2034C51.8852 65.4501 51.2992 65.455 50.6157 65.2066C47.3705 64.0215 44.1058 62.8916 40.8492 61.739C40.6106 61.6546 40.3817 61.5426 39.9352 61.3526L39.9336 61.3542Z" fill="url(#paint3_linear_939_2673)"/>
<defs>
<linearGradient id="paint0_linear_939_2673" x1="14.9432" y1="17.5869" x2="51.546" y2="82.0725" gradientUnits="userSpaceOnUse">
<stop stop-color="#FF9E82"/>
<stop offset="0.389423" stop-color="#F6754F"/>
</linearGradient>
<linearGradient id="paint1_linear_939_2673" x1="51.5342" y1="84.4453" x2="51.5342" y2="94.3361" gradientUnits="userSpaceOnUse">
<stop stop-color="#FF9E82"/>
<stop offset="0.389423" stop-color="#F6754F"/>
</linearGradient>
<linearGradient id="paint2_linear_939_2673" x1="51.6005" y1="70.9336" x2="51.6005" y2="78.4048" gradientUnits="userSpaceOnUse">
<stop stop-color="#FF9E82"/>
<stop offset="0.389423" stop-color="#F6754F"/>
</linearGradient>
<linearGradient id="paint3_linear_939_2673" x1="51.5248" y1="57.4336" x2="51.5248" y2="65.3907" gradientUnits="userSpaceOnUse">
<stop stop-color="#FF9E82"/>
<stop offset="0.389423" stop-color="#F6754F"/>
</linearGradient>
</defs>
</svg>
