<svg width="35" height="39" viewBox="0 0 35 39" fill="none" xmlns="http://www.w3.org/2000/svg">
<g filter="url(#filter0_i_939_2747)">
<g filter="url(#filter1_i_939_2747)">
<path fill-rule="evenodd" clip-rule="evenodd" d="M29.3335 12.8229C29.3335 9.43694 26.7249 6.66656 23.537 6.66656H10.9966C8.06442 6.66656 5.62288 9.01055 5.25 12.0212L5.25 30.1897C5.62288 33.1872 8.06442 35.4492 10.9966 35.4492H23.537C26.7251 35.4492 29.3335 32.7756 29.3335 29.3896V12.8229Z" fill="url(#paint0_linear_939_2747)"/>
</g>
<path d="M5.47461 12.042C5.83794 9.13491 8.19267 6.8916 10.9971 6.8916H23.5371C26.5882 6.89164 29.1084 9.5485 29.1084 12.8232V29.3896C29.1084 32.6596 26.5928 35.2246 23.5371 35.2246H10.9971C8.1883 35.2246 5.83741 33.0581 5.47461 30.1689L5.47461 12.042Z" stroke="#72684B" stroke-opacity="0.8" stroke-width="0.449729"/>
<path d="M8.03734 18.2731L12.6746 19.7611L14.2203 16.9552H20.5098L22.0442 19.8038L28.158 18.4006M28.158 18.4006C28.158 18.4006 28.154 13.6179 28.1635 11.8534C27.3282 8.21854 23.5772 8.14316 23.5772 8.14316M23.5772 8.14316L23.5882 6.6841L23.5772 8.14316ZM6.42969 18.2731L6.42969 12.2785C7.06869 8.15439 11.1287 8.15439 11.1287 8.15439M11.1287 8.15439V6.70917V8.15439ZM14.3325 16.9262L12.6819 15.3823L12.6913 6.70933M17.3809 16.9126L17.3943 8.19731L17.3809 16.9126ZM14.3174 6.66656L14.3213 8.19716L20.444 8.18362V6.66656M20.4442 16.9552L22.052 15.4246V6.70933M23.5414 35.42L23.5358 34.0885L23.5414 35.42ZM23.5358 34.0885C23.5358 34.0885 27.1839 34.1309 28.1262 30.5988C28.1525 29.752 28.1394 24.0919 28.1394 24.0919M28.1394 24.0919L21.9285 22.6946L20.4442 25.4581L14.2406 25.4444L12.7979 22.6192L6.44445 23.9701M6.44445 23.9701C6.44445 23.9701 6.44639 25.4368 6.44833 29.497C6.47086 33.5357 10.7646 34.0885 11.1733 34.046C11.1906 34.5562 11.1886 35.4217 11.1886 35.4217M12.6538 35.4046L12.6407 26.8979L14.2781 25.4156M14.2613 35.4491V34.0597L20.4855 34.0462V35.4492M21.9975 35.4394L22.0199 26.9036L20.4442 25.4581M17.3454 34.0885L17.3491 25.4581L17.3454 34.0885Z" fill="url(#paint1_linear_939_2747)"/>
<path d="M8.03734 18.2731L12.6746 19.7611L14.2203 16.9552H20.5098L22.0442 19.8038L28.158 18.4006C28.158 18.4006 28.154 13.6179 28.1635 11.8534C27.3282 8.21854 23.5772 8.14316 23.5772 8.14316L23.5882 6.6841M6.42969 18.2731L6.42969 12.2785C7.06869 8.15439 11.1287 8.15439 11.1287 8.15439V6.70917M14.3325 16.9262L12.6819 15.3823L12.6913 6.70933M17.3809 16.9126L17.3943 8.19731M14.3174 6.66656L14.3213 8.19716L20.444 8.18362V6.66656M20.4442 16.9552L22.052 15.4246V6.70933M23.5414 35.42L23.5358 34.0885C23.5358 34.0885 27.1839 34.1309 28.1262 30.5988C28.1525 29.752 28.1394 24.0919 28.1394 24.0919L21.9285 22.6946L20.4442 25.4581M20.4442 25.4581L14.2406 25.4444L12.7979 22.6192L6.44445 23.9701C6.44445 23.9701 6.44639 25.4368 6.44833 29.497C6.47086 33.5357 10.7646 34.0885 11.1733 34.046C11.1906 34.5561 11.1886 35.4217 11.1886 35.4217M20.4442 25.4581L22.0199 26.9036L21.9975 35.4394M12.6538 35.4046L12.6407 26.8979L14.2781 25.4156M14.2613 35.4491V34.0597L20.4855 34.0462V35.4492M17.3454 34.0885L17.3491 25.4581" stroke="#7A6B42" stroke-width="0.434738" stroke-miterlimit="2.613"/>
</g>
<defs>
<filter id="filter0_i_939_2747" x="5.25" y="6.66406" width="26.4806" height="31.1837" filterUnits="userSpaceOnUse" color-interpolation-filters="sRGB">
<feFlood flood-opacity="0" result="BackgroundImageFix"/>
<feBlend mode="normal" in="SourceGraphic" in2="BackgroundImageFix" result="shape"/>
<feColorMatrix in="SourceAlpha" type="matrix" values="0 0 0 0 0 0 0 0 0 0 0 0 0 0 0 0 0 0 127 0" result="hardAlpha"/>
<feOffset dx="2.39856" dy="2.39856"/>
<feGaussianBlur stdDeviation="5.39675"/>
<feComposite in2="hardAlpha" operator="arithmetic" k2="-1" k3="1"/>
<feColorMatrix type="matrix" values="0 0 0 0 0 0 0 0 0 0 0 0 0 0 0 0 0 0 0.4 0"/>
<feBlend mode="normal" in2="shape" result="effect1_innerShadow_939_2747"/>
</filter>
<filter id="filter1_i_939_2747" x="5.25" y="5.46869" width="24.082" height="29.9805" filterUnits="userSpaceOnUse" color-interpolation-filters="sRGB">
<feFlood flood-opacity="0" result="BackgroundImageFix"/>
<feBlend mode="normal" in="SourceGraphic" in2="BackgroundImageFix" result="shape"/>
<feColorMatrix in="SourceAlpha" type="matrix" values="0 0 0 0 0 0 0 0 0 0 0 0 0 0 0 0 0 0 127 0" result="hardAlpha"/>
<feOffset dy="-1.19928"/>
<feGaussianBlur stdDeviation="1.79892"/>
<feComposite in2="hardAlpha" operator="arithmetic" k2="-1" k3="1"/>
<feColorMatrix type="matrix" values="0 0 0 0 0 0 0 0 0 0 0 0 0 0 0 0 0 0 0.25 0"/>
<feBlend mode="normal" in2="shape" result="effect1_innerShadow_939_2747"/>
</filter>
<linearGradient id="paint0_linear_939_2747" x1="9.7991" y1="20.0985" x2="27.5462" y2="15.9613" gradientUnits="userSpaceOnUse">
<stop stop-color="#FFF6A7"/>
<stop offset="0.782254" stop-color="#F4C33F"/>
</linearGradient>
<linearGradient id="paint1_linear_939_2747" x1="10.535" y1="20.0985" x2="26.7054" y2="16.6966" gradientUnits="userSpaceOnUse">
<stop stop-color="#FFF6A7"/>
<stop offset="0.782254" stop-color="#F4C33F"/>
</linearGradient>
</defs>
</svg>
