<svg width="296" height="189" viewBox="0 0 296 189" fill="none" xmlns="http://www.w3.org/2000/svg">
<mask id="mask0_446_17827" style="mask-type:luminance" maskUnits="userSpaceOnUse" x="0" y="0" width="296" height="189">
<path d="M0 0H295.25V189H0V0Z" fill="white"/>
</mask>
<g mask="url(#mask0_446_17827)">
<mask id="mask1_446_17827" style="mask-type:alpha" maskUnits="userSpaceOnUse" x="-1" y="-2" width="295" height="192">
<path d="M-1 -1.61719H294V189.003H-1V-1.61719Z" fill="url(#paint0_linear_446_17827)"/>
</mask>
<g mask="url(#mask1_446_17827)">
<path d="M15 19C16.1046 19 17 18.1046 17 17C17 15.8954 16.1046 15 15 15C13.8954 15 13 15.8954 13 17C13 18.1046 13.8954 19 15 19Z" fill="#F3F4F6" fill-opacity="0.09"/>
<path d="M27 19C28.1046 19 29 18.1046 29 17C29 15.8954 28.1046 15 27 15C25.8954 15 25 15.8954 25 17C25 18.1046 25.8954 19 27 19Z" fill="#F6754F" fill-opacity="0.47"/>
<path d="M39 19C40.1046 19 41 18.1046 41 17C41 15.8954 40.1046 15 39 15C37.8954 15 37 15.8954 37 17C37 18.1046 37.8954 19 39 19Z" fill="#F3F4F6" fill-opacity="0.09"/>
<path d="M51 19C52.1046 19 53 18.1046 53 17C53 15.8954 52.1046 15 51 15C49.8954 15 49 15.8954 49 17C49 18.1046 49.8954 19 51 19Z" fill="#F3F4F6" fill-opacity="0.09"/>
<path d="M63 19C64.1046 19 65 18.1046 65 17C65 15.8954 64.1046 15 63 15C61.8954 15 61 15.8954 61 17C61 18.1046 61.8954 19 63 19Z" fill="#F3F4F6" fill-opacity="0.09"/>
<path d="M75 19C76.1046 19 77 18.1046 77 17C77 15.8954 76.1046 15 75 15C73.8954 15 73 15.8954 73 17C73 18.1046 73.8954 19 75 19Z" fill="#F3F4F6" fill-opacity="0.09"/>
<path d="M87 19C88.1046 19 89 18.1046 89 17C89 15.8954 88.1046 15 87 15C85.8954 15 85 15.8954 85 17C85 18.1046 85.8954 19 87 19Z" fill="#F3F4F6" fill-opacity="0.09"/>
<path d="M99 19C100.105 19 101 18.1046 101 17C101 15.8954 100.105 15 99 15C97.8954 15 97 15.8954 97 17C97 18.1046 97.8954 19 99 19Z" fill="#F3F4F6" fill-opacity="0.09"/>
<path d="M111 19C112.105 19 113 18.1046 113 17C113 15.8954 112.105 15 111 15C109.895 15 109 15.8954 109 17C109 18.1046 109.895 19 111 19Z" fill="#F3F4F6" fill-opacity="0.09"/>
<path d="M123 19C124.105 19 125 18.1046 125 17C125 15.8954 124.105 15 123 15C121.895 15 121 15.8954 121 17C121 18.1046 121.895 19 123 19Z" fill="#F3F4F6" fill-opacity="0.09"/>
<path opacity="0.5" d="M135 19C136.105 19 137 18.1046 137 17C137 15.8954 136.105 15 135 15C133.895 15 133 15.8954 133 17C133 18.1046 133.895 19 135 19Z" fill="#F3F4F6" fill-opacity="0.09"/>
<path d="M147 19C148.105 19 149 18.1046 149 17C149 15.8954 148.105 15 147 15C145.895 15 145 15.8954 145 17C145 18.1046 145.895 19 147 19Z" fill="#F3F4F6" fill-opacity="0.09"/>
<path d="M159 19C160.105 19 161 18.1046 161 17C161 15.8954 160.105 15 159 15C157.895 15 157 15.8954 157 17C157 18.1046 157.895 19 159 19Z" fill="#F3F4F6" fill-opacity="0.09"/>
<path d="M171 19C172.105 19 173 18.1046 173 17C173 15.8954 172.105 15 171 15C169.895 15 169 15.8954 169 17C169 18.1046 169.895 19 171 19Z" fill="#F3F4F6" fill-opacity="0.09"/>
<path opacity="0.2" d="M183 19C184.105 19 185 18.1046 185 17C185 15.8954 184.105 15 183 15C181.895 15 181 15.8954 181 17C181 18.1046 181.895 19 183 19Z" fill="#F3F4F6" fill-opacity="0.09"/>
<path d="M195 19C196.105 19 197 18.1046 197 17C197 15.8954 196.105 15 195 15C193.895 15 193 15.8954 193 17C193 18.1046 193.895 19 195 19Z" fill="#F3F4F6" fill-opacity="0.09"/>
<path d="M207 19C208.105 19 209 18.1046 209 17C209 15.8954 208.105 15 207 15C205.895 15 205 15.8954 205 17C205 18.1046 205.895 19 207 19Z" fill="#F3F4F6" fill-opacity="0.09"/>
<path d="M219 19C220.105 19 221 18.1046 221 17C221 15.8954 220.105 15 219 15C217.895 15 217 15.8954 217 17C217 18.1046 217.895 19 219 19Z" fill="#F3F4F6" fill-opacity="0.09"/>
<path d="M231 19C232.105 19 233 18.1046 233 17C233 15.8954 232.105 15 231 15C229.895 15 229 15.8954 229 17C229 18.1046 229.895 19 231 19Z" fill="#F3F4F6" fill-opacity="0.09"/>
<path d="M243 19C244.105 19 245 18.1046 245 17C245 15.8954 244.105 15 243 15C241.895 15 241 15.8954 241 17C241 18.1046 241.895 19 243 19Z" fill="#00F58C" fill-opacity="0.13"/>
<path d="M255 19C256.105 19 257 18.1046 257 17C257 15.8954 256.105 15 255 15C253.895 15 253 15.8954 253 17C253 18.1046 253.895 19 255 19Z" fill="#F3F4F6" fill-opacity="0.09"/>
<path d="M267 19C268.105 19 269 18.1046 269 17C269 15.8954 268.105 15 267 15C265.895 15 265 15.8954 265 17C265 18.1046 265.895 19 267 19Z" fill="#00F58C" fill-opacity="0.13"/>
<path d="M279 19C280.105 19 281 18.1046 281 17C281 15.8954 280.105 15 279 15C277.895 15 277 15.8954 277 17C277 18.1046 277.895 19 279 19Z" fill="#F6754F" fill-opacity="0.47"/>
<path d="M15 31C16.1046 31 17 30.1046 17 29C17 27.8954 16.1046 27 15 27C13.8954 27 13 27.8954 13 29C13 30.1046 13.8954 31 15 31Z" fill="#F3F4F6" fill-opacity="0.09"/>
<path d="M27 31C28.1046 31 29 30.1046 29 29C29 27.8954 28.1046 27 27 27C25.8954 27 25 27.8954 25 29C25 30.1046 25.8954 31 27 31Z" fill="#F3F4F6" fill-opacity="0.09"/>
<path d="M39 31C40.1046 31 41 30.1046 41 29C41 27.8954 40.1046 27 39 27C37.8954 27 37 27.8954 37 29C37 30.1046 37.8954 31 39 31Z" fill="#F3F4F6" fill-opacity="0.09"/>
<path d="M51 31C52.1046 31 53 30.1046 53 29C53 27.8954 52.1046 27 51 27C49.8954 27 49 27.8954 49 29C49 30.1046 49.8954 31 51 31Z" fill="#F3F4F6" fill-opacity="0.09"/>
<path d="M63 31C64.1046 31 65 30.1046 65 29C65 27.8954 64.1046 27 63 27C61.8954 27 61 27.8954 61 29C61 30.1046 61.8954 31 63 31Z" fill="#F3F4F6" fill-opacity="0.09"/>
<path d="M75 31C76.1046 31 77 30.1046 77 29C77 27.8954 76.1046 27 75 27C73.8954 27 73 27.8954 73 29C73 30.1046 73.8954 31 75 31Z" fill="#F3F4F6" fill-opacity="0.09"/>
<path d="M87 31C88.1046 31 89 30.1046 89 29C89 27.8954 88.1046 27 87 27C85.8954 27 85 27.8954 85 29C85 30.1046 85.8954 31 87 31Z" fill="#F3F4F6" fill-opacity="0.09"/>
<path d="M99 31C100.105 31 101 30.1046 101 29C101 27.8954 100.105 27 99 27C97.8954 27 97 27.8954 97 29C97 30.1046 97.8954 31 99 31Z" fill="#F6754F" fill-opacity="0.47"/>
<path d="M111 31C112.105 31 113 30.1046 113 29C113 27.8954 112.105 27 111 27C109.895 27 109 27.8954 109 29C109 30.1046 109.895 31 111 31Z" fill="#F3F4F6" fill-opacity="0.09"/>
<path d="M123 31C124.105 31 125 30.1046 125 29C125 27.8954 124.105 27 123 27C121.895 27 121 27.8954 121 29C121 30.1046 121.895 31 123 31Z" fill="#F3F4F6" fill-opacity="0.09"/>
<path d="M135 31C136.105 31 137 30.1046 137 29C137 27.8954 136.105 27 135 27C133.895 27 133 27.8954 133 29C133 30.1046 133.895 31 135 31Z" fill="#F3F4F6" fill-opacity="0.09"/>
<path opacity="0.2" d="M147 31C148.105 31 149 30.1046 149 29C149 27.8954 148.105 27 147 27C145.895 27 145 27.8954 145 29C145 30.1046 145.895 31 147 31Z" fill="#00F58C" fill-opacity="0.13"/>
<path d="M159 31C160.105 31 161 30.1046 161 29C161 27.8954 160.105 27 159 27C157.895 27 157 27.8954 157 29C157 30.1046 157.895 31 159 31Z" fill="#F3F4F6" fill-opacity="0.09"/>
<path d="M171 31C172.105 31 173 30.1046 173 29C173 27.8954 172.105 27 171 27C169.895 27 169 27.8954 169 29C169 30.1046 169.895 31 171 31Z" fill="#F3F4F6" fill-opacity="0.09"/>
<path d="M183 31C184.105 31 185 30.1046 185 29C185 27.8954 184.105 27 183 27C181.895 27 181 27.8954 181 29C181 30.1046 181.895 31 183 31Z" fill="#F3F4F6" fill-opacity="0.09"/>
<path d="M195 31C196.105 31 197 30.1046 197 29C197 27.8954 196.105 27 195 27C193.895 27 193 27.8954 193 29C193 30.1046 193.895 31 195 31Z" fill="#F3F4F6" fill-opacity="0.09"/>
<path d="M207 31C208.105 31 209 30.1046 209 29C209 27.8954 208.105 27 207 27C205.895 27 205 27.8954 205 29C205 30.1046 205.895 31 207 31Z" fill="#F3F4F6" fill-opacity="0.09"/>
<path d="M219 31C220.105 31 221 30.1046 221 29C221 27.8954 220.105 27 219 27C217.895 27 217 27.8954 217 29C217 30.1046 217.895 31 219 31Z" fill="#F3F4F6" fill-opacity="0.09"/>
<path d="M231 31C232.105 31 233 30.1046 233 29C233 27.8954 232.105 27 231 27C229.895 27 229 27.8954 229 29C229 30.1046 229.895 31 231 31Z" fill="#F3F4F6" fill-opacity="0.09"/>
<path d="M243 31C244.105 31 245 30.1046 245 29C245 27.8954 244.105 27 243 27C241.895 27 241 27.8954 241 29C241 30.1046 241.895 31 243 31Z" fill="#F3F4F6" fill-opacity="0.09"/>
<path d="M255 31C256.105 31 257 30.1046 257 29C257 27.8954 256.105 27 255 27C253.895 27 253 27.8954 253 29C253 30.1046 253.895 31 255 31Z" fill="#F3F4F6" fill-opacity="0.09"/>
<path d="M267 31C268.105 31 269 30.1046 269 29C269 27.8954 268.105 27 267 27C265.895 27 265 27.8954 265 29C265 30.1046 265.895 31 267 31Z" fill="#F3F4F6" fill-opacity="0.09"/>
<path opacity="0.5" d="M279 31C280.105 31 281 30.1046 281 29C281 27.8954 280.105 27 279 27C277.895 27 277 27.8954 277 29C277 30.1046 277.895 31 279 31Z" fill="#F3F4F6" fill-opacity="0.09"/>
<path d="M15 43C16.1046 43 17 42.1046 17 41C17 39.8954 16.1046 39 15 39C13.8954 39 13 39.8954 13 41C13 42.1046 13.8954 43 15 43Z" fill="#F3F4F6" fill-opacity="0.09"/>
<path d="M27 43C28.1046 43 29 42.1046 29 41C29 39.8954 28.1046 39 27 39C25.8954 39 25 39.8954 25 41C25 42.1046 25.8954 43 27 43Z" fill="#F3F4F6" fill-opacity="0.09"/>
<path opacity="0.2" d="M39 43C40.1046 43 41 42.1046 41 41C41 39.8954 40.1046 39 39 39C37.8954 39 37 39.8954 37 41C37 42.1046 37.8954 43 39 43Z" fill="#F3F4F6" fill-opacity="0.09"/>
<path d="M51 43C52.1046 43 53 42.1046 53 41C53 39.8954 52.1046 39 51 39C49.8954 39 49 39.8954 49 41C49 42.1046 49.8954 43 51 43Z" fill="#F3F4F6" fill-opacity="0.09"/>
<path d="M63 43C64.1046 43 65 42.1046 65 41C65 39.8954 64.1046 39 63 39C61.8954 39 61 39.8954 61 41C61 42.1046 61.8954 43 63 43Z" fill="#F3F4F6" fill-opacity="0.09"/>
<path d="M75 43C76.1046 43 77 42.1046 77 41C77 39.8954 76.1046 39 75 39C73.8954 39 73 39.8954 73 41C73 42.1046 73.8954 43 75 43Z" fill="#F3F4F6" fill-opacity="0.09"/>
<path d="M87 43C88.1046 43 89 42.1046 89 41C89 39.8954 88.1046 39 87 39C85.8954 39 85 39.8954 85 41C85 42.1046 85.8954 43 87 43Z" fill="#F3F4F6" fill-opacity="0.09"/>
<path d="M99 43C100.105 43 101 42.1046 101 41C101 39.8954 100.105 39 99 39C97.8954 39 97 39.8954 97 41C97 42.1046 97.8954 43 99 43Z" fill="#F3F4F6" fill-opacity="0.09"/>
<path d="M111 43C112.105 43 113 42.1046 113 41C113 39.8954 112.105 39 111 39C109.895 39 109 39.8954 109 41C109 42.1046 109.895 43 111 43Z" fill="#F3F4F6" fill-opacity="0.09"/>
<path d="M123 43C124.105 43 125 42.1046 125 41C125 39.8954 124.105 39 123 39C121.895 39 121 39.8954 121 41C121 42.1046 121.895 43 123 43Z" fill="#F3F4F6" fill-opacity="0.09"/>
<path d="M135 43C136.105 43 137 42.1046 137 41C137 39.8954 136.105 39 135 39C133.895 39 133 39.8954 133 41C133 42.1046 133.895 43 135 43Z" fill="#F3F4F6" fill-opacity="0.09"/>
<path d="M147 43C148.105 43 149 42.1046 149 41C149 39.8954 148.105 39 147 39C145.895 39 145 39.8954 145 41C145 42.1046 145.895 43 147 43Z" fill="#F3F4F6" fill-opacity="0.09"/>
<path d="M159 43C160.105 43 161 42.1046 161 41C161 39.8954 160.105 39 159 39C157.895 39 157 39.8954 157 41C157 42.1046 157.895 43 159 43Z" fill="#F3F4F6" fill-opacity="0.09"/>
<path d="M171 43C172.105 43 173 42.1046 173 41C173 39.8954 172.105 39 171 39C169.895 39 169 39.8954 169 41C169 42.1046 169.895 43 171 43Z" fill="#F3F4F6" fill-opacity="0.09"/>
<path d="M183 43C184.105 43 185 42.1046 185 41C185 39.8954 184.105 39 183 39C181.895 39 181 39.8954 181 41C181 42.1046 181.895 43 183 43Z" fill="#F3F4F6" fill-opacity="0.09"/>
<path d="M195 43C196.105 43 197 42.1046 197 41C197 39.8954 196.105 39 195 39C193.895 39 193 39.8954 193 41C193 42.1046 193.895 43 195 43Z" fill="#F3F4F6" fill-opacity="0.09"/>
<path d="M207 43C208.105 43 209 42.1046 209 41C209 39.8954 208.105 39 207 39C205.895 39 205 39.8954 205 41C205 42.1046 205.895 43 207 43Z" fill="#F3F4F6" fill-opacity="0.09"/>
<path d="M219 43C220.105 43 221 42.1046 221 41C221 39.8954 220.105 39 219 39C217.895 39 217 39.8954 217 41C217 42.1046 217.895 43 219 43Z" fill="#F3F4F6" fill-opacity="0.09"/>
<path d="M231 43C232.105 43 233 42.1046 233 41C233 39.8954 232.105 39 231 39C229.895 39 229 39.8954 229 41C229 42.1046 229.895 43 231 43Z" fill="#F3F4F6" fill-opacity="0.09"/>
<path d="M243 43C244.105 43 245 42.1046 245 41C245 39.8954 244.105 39 243 39C241.895 39 241 39.8954 241 41C241 42.1046 241.895 43 243 43Z" fill="#F3F4F6" fill-opacity="0.09"/>
<path d="M255 43C256.105 43 257 42.1046 257 41C257 39.8954 256.105 39 255 39C253.895 39 253 39.8954 253 41C253 42.1046 253.895 43 255 43Z" fill="#F3F4F6" fill-opacity="0.09"/>
<path d="M267 43C268.105 43 269 42.1046 269 41C269 39.8954 268.105 39 267 39C265.895 39 265 39.8954 265 41C265 42.1046 265.895 43 267 43Z" fill="#F3F4F6" fill-opacity="0.09"/>
<path d="M279 43C280.105 43 281 42.1046 281 41C281 39.8954 280.105 39 279 39C277.895 39 277 39.8954 277 41C277 42.1046 277.895 43 279 43Z" fill="#F3F4F6" fill-opacity="0.09"/>
<path d="M15 55C16.1046 55 17 54.1046 17 53C17 51.8954 16.1046 51 15 51C13.8954 51 13 51.8954 13 53C13 54.1046 13.8954 55 15 55Z" fill="#F3F4F6" fill-opacity="0.09"/>
<path d="M27 55C28.1046 55 29 54.1046 29 53C29 51.8954 28.1046 51 27 51C25.8954 51 25 51.8954 25 53C25 54.1046 25.8954 55 27 55Z" fill="#F3F4F6" fill-opacity="0.09"/>
<path d="M39 55C40.1046 55 41 54.1046 41 53C41 51.8954 40.1046 51 39 51C37.8954 51 37 51.8954 37 53C37 54.1046 37.8954 55 39 55Z" fill="#F3F4F6" fill-opacity="0.09"/>
<path d="M51 55C52.1046 55 53 54.1046 53 53C53 51.8954 52.1046 51 51 51C49.8954 51 49 51.8954 49 53C49 54.1046 49.8954 55 51 55Z" fill="#F3F4F6" fill-opacity="0.09"/>
<path d="M63 55C64.1046 55 65 54.1046 65 53C65 51.8954 64.1046 51 63 51C61.8954 51 61 51.8954 61 53C61 54.1046 61.8954 55 63 55Z" fill="#F3F4F6" fill-opacity="0.09"/>
<path d="M75 55C76.1046 55 77 54.1046 77 53C77 51.8954 76.1046 51 75 51C73.8954 51 73 51.8954 73 53C73 54.1046 73.8954 55 75 55Z" fill="#F3F4F6" fill-opacity="0.09"/>
<path d="M87 55C88.1046 55 89 54.1046 89 53C89 51.8954 88.1046 51 87 51C85.8954 51 85 51.8954 85 53C85 54.1046 85.8954 55 87 55Z" fill="#F3F4F6" fill-opacity="0.09"/>
<path d="M99 55C100.105 55 101 54.1046 101 53C101 51.8954 100.105 51 99 51C97.8954 51 97 51.8954 97 53C97 54.1046 97.8954 55 99 55Z" fill="#F3F4F6" fill-opacity="0.09"/>
<path d="M111 55C112.105 55 113 54.1046 113 53C113 51.8954 112.105 51 111 51C109.895 51 109 51.8954 109 53C109 54.1046 109.895 55 111 55Z" fill="#F3F4F6" fill-opacity="0.09"/>
<path d="M123 55C124.105 55 125 54.1046 125 53C125 51.8954 124.105 51 123 51C121.895 51 121 51.8954 121 53C121 54.1046 121.895 55 123 55Z" fill="#F3F4F6" fill-opacity="0.09"/>
<path d="M135 55C136.105 55 137 54.1046 137 53C137 51.8954 136.105 51 135 51C133.895 51 133 51.8954 133 53C133 54.1046 133.895 55 135 55Z" fill="#F3F4F6" fill-opacity="0.09"/>
<path d="M147 55C148.105 55 149 54.1046 149 53C149 51.8954 148.105 51 147 51C145.895 51 145 51.8954 145 53C145 54.1046 145.895 55 147 55Z" fill="#F3F4F6" fill-opacity="0.09"/>
<path d="M159 55C160.105 55 161 54.1046 161 53C161 51.8954 160.105 51 159 51C157.895 51 157 51.8954 157 53C157 54.1046 157.895 55 159 55Z" fill="#F3F4F6" fill-opacity="0.09"/>
<path d="M171 55C172.105 55 173 54.1046 173 53C173 51.8954 172.105 51 171 51C169.895 51 169 51.8954 169 53C169 54.1046 169.895 55 171 55Z" fill="#F3F4F6" fill-opacity="0.09"/>
<path d="M183 55C184.105 55 185 54.1046 185 53C185 51.8954 184.105 51 183 51C181.895 51 181 51.8954 181 53C181 54.1046 181.895 55 183 55Z" fill="#F3F4F6" fill-opacity="0.09"/>
<path d="M195 55C196.105 55 197 54.1046 197 53C197 51.8954 196.105 51 195 51C193.895 51 193 51.8954 193 53C193 54.1046 193.895 55 195 55Z" fill="#F3F4F6" fill-opacity="0.09"/>
<path d="M207 55C208.105 55 209 54.1046 209 53C209 51.8954 208.105 51 207 51C205.895 51 205 51.8954 205 53C205 54.1046 205.895 55 207 55Z" fill="#F3F4F6" fill-opacity="0.09"/>
<path d="M219 55C220.105 55 221 54.1046 221 53C221 51.8954 220.105 51 219 51C217.895 51 217 51.8954 217 53C217 54.1046 217.895 55 219 55Z" fill="#F3F4F6" fill-opacity="0.09"/>
<path d="M231 55C232.105 55 233 54.1046 233 53C233 51.8954 232.105 51 231 51C229.895 51 229 51.8954 229 53C229 54.1046 229.895 55 231 55Z" fill="#F3F4F6" fill-opacity="0.09"/>
<path d="M243 55C244.105 55 245 54.1046 245 53C245 51.8954 244.105 51 243 51C241.895 51 241 51.8954 241 53C241 54.1046 241.895 55 243 55Z" fill="#F6754F" fill-opacity="0.47"/>
<path d="M255 55C256.105 55 257 54.1046 257 53C257 51.8954 256.105 51 255 51C253.895 51 253 51.8954 253 53C253 54.1046 253.895 55 255 55Z" fill="#F3F4F6" fill-opacity="0.09"/>
<path opacity="0.2" d="M267 55C268.105 55 269 54.1046 269 53C269 51.8954 268.105 51 267 51C265.895 51 265 51.8954 265 53C265 54.1046 265.895 55 267 55Z" fill="#F3F4F6" fill-opacity="0.09"/>
<path d="M279 55C280.105 55 281 54.1046 281 53C281 51.8954 280.105 51 279 51C277.895 51 277 51.8954 277 53C277 54.1046 277.895 55 279 55Z" fill="#F3F4F6" fill-opacity="0.09"/>
<path opacity="0.5" d="M15 67C16.1046 67 17 66.1046 17 65C17 63.8954 16.1046 63 15 63C13.8954 63 13 63.8954 13 65C13 66.1046 13.8954 67 15 67Z" fill="#F3F4F6" fill-opacity="0.09"/>
<path d="M27 67C28.1046 67 29 66.1046 29 65C29 63.8954 28.1046 63 27 63C25.8954 63 25 63.8954 25 65C25 66.1046 25.8954 67 27 67Z" fill="#F3F4F6" fill-opacity="0.09"/>
<path d="M39 67C40.1046 67 41 66.1046 41 65C41 63.8954 40.1046 63 39 63C37.8954 63 37 63.8954 37 65C37 66.1046 37.8954 67 39 67Z" fill="#00F58C" fill-opacity="0.13"/>
<path d="M51 67C52.1046 67 53 66.1046 53 65C53 63.8954 52.1046 63 51 63C49.8954 63 49 63.8954 49 65C49 66.1046 49.8954 67 51 67Z" fill="#F3F4F6" fill-opacity="0.09"/>
<path d="M63 67C64.1046 67 65 66.1046 65 65C65 63.8954 64.1046 63 63 63C61.8954 63 61 63.8954 61 65C61 66.1046 61.8954 67 63 67Z" fill="#F3F4F6" fill-opacity="0.09"/>
<path d="M75 67C76.1046 67 77 66.1046 77 65C77 63.8954 76.1046 63 75 63C73.8954 63 73 63.8954 73 65C73 66.1046 73.8954 67 75 67Z" fill="#F3F4F6" fill-opacity="0.09"/>
<path d="M87 67C88.1046 67 89 66.1046 89 65C89 63.8954 88.1046 63 87 63C85.8954 63 85 63.8954 85 65C85 66.1046 85.8954 67 87 67Z" fill="#F3F4F6" fill-opacity="0.09"/>
<path d="M99 67C100.105 67 101 66.1046 101 65C101 63.8954 100.105 63 99 63C97.8954 63 97 63.8954 97 65C97 66.1046 97.8954 67 99 67Z" fill="#F3F4F6" fill-opacity="0.09"/>
<path d="M111 67C112.105 67 113 66.1046 113 65C113 63.8954 112.105 63 111 63C109.895 63 109 63.8954 109 65C109 66.1046 109.895 67 111 67Z" fill="#F3F4F6" fill-opacity="0.09"/>
<path d="M123 67C124.105 67 125 66.1046 125 65C125 63.8954 124.105 63 123 63C121.895 63 121 63.8954 121 65C121 66.1046 121.895 67 123 67Z" fill="#F3F4F6" fill-opacity="0.09"/>
<path d="M135 67C136.105 67 137 66.1046 137 65C137 63.8954 136.105 63 135 63C133.895 63 133 63.8954 133 65C133 66.1046 133.895 67 135 67Z" fill="#F3F4F6" fill-opacity="0.09"/>
<path opacity="0.2" d="M147 67C148.105 67 149 66.1046 149 65C149 63.8954 148.105 63 147 63C145.895 63 145 63.8954 145 65C145 66.1046 145.895 67 147 67Z" fill="#F3F4F6" fill-opacity="0.09"/>
<path d="M159 67C160.105 67 161 66.1046 161 65C161 63.8954 160.105 63 159 63C157.895 63 157 63.8954 157 65C157 66.1046 157.895 67 159 67Z" fill="#F3F4F6" fill-opacity="0.09"/>
<path d="M171 67C172.105 67 173 66.1046 173 65C173 63.8954 172.105 63 171 63C169.895 63 169 63.8954 169 65C169 66.1046 169.895 67 171 67Z" fill="#F3F4F6" fill-opacity="0.09"/>
<path d="M183 67C184.105 67 185 66.1046 185 65C185 63.8954 184.105 63 183 63C181.895 63 181 63.8954 181 65C181 66.1046 181.895 67 183 67Z" fill="#F3F4F6" fill-opacity="0.09"/>
<path d="M195 67C196.105 67 197 66.1046 197 65C197 63.8954 196.105 63 195 63C193.895 63 193 63.8954 193 65C193 66.1046 193.895 67 195 67Z" fill="#F3F4F6" fill-opacity="0.09"/>
<path d="M207 67C208.105 67 209 66.1046 209 65C209 63.8954 208.105 63 207 63C205.895 63 205 63.8954 205 65C205 66.1046 205.895 67 207 67Z" fill="#F3F4F6" fill-opacity="0.09"/>
<path d="M219 67C220.105 67 221 66.1046 221 65C221 63.8954 220.105 63 219 63C217.895 63 217 63.8954 217 65C217 66.1046 217.895 67 219 67Z" fill="#F3F4F6" fill-opacity="0.09"/>
<path d="M231 67C232.105 67 233 66.1046 233 65C233 63.8954 232.105 63 231 63C229.895 63 229 63.8954 229 65C229 66.1046 229.895 67 231 67Z" fill="#F3F4F6" fill-opacity="0.09"/>
<path d="M243 67C244.105 67 245 66.1046 245 65C245 63.8954 244.105 63 243 63C241.895 63 241 63.8954 241 65C241 66.1046 241.895 67 243 67Z" fill="#F3F4F6" fill-opacity="0.09"/>
<path d="M255 67C256.105 67 257 66.1046 257 65C257 63.8954 256.105 63 255 63C253.895 63 253 63.8954 253 65C253 66.1046 253.895 67 255 67Z" fill="#F3F4F6" fill-opacity="0.09"/>
<path d="M267 67C268.105 67 269 66.1046 269 65C269 63.8954 268.105 63 267 63C265.895 63 265 63.8954 265 65C265 66.1046 265.895 67 267 67Z" fill="#F6754F" fill-opacity="0.47"/>
<path d="M279 67C280.105 67 281 66.1046 281 65C281 63.8954 280.105 63 279 63C277.895 63 277 63.8954 277 65C277 66.1046 277.895 67 279 67Z" fill="#F3F4F6" fill-opacity="0.09"/>
<path d="M15 79C16.1046 79 17 78.1046 17 77C17 75.8954 16.1046 75 15 75C13.8954 75 13 75.8954 13 77C13 78.1046 13.8954 79 15 79Z" fill="#F3F4F6" fill-opacity="0.09"/>
<path d="M27 79C28.1046 79 29 78.1046 29 77C29 75.8954 28.1046 75 27 75C25.8954 75 25 75.8954 25 77C25 78.1046 25.8954 79 27 79Z" fill="#F3F4F6" fill-opacity="0.09"/>
<path d="M39 79C40.1046 79 41 78.1046 41 77C41 75.8954 40.1046 75 39 75C37.8954 75 37 75.8954 37 77C37 78.1046 37.8954 79 39 79Z" fill="#F3F4F6" fill-opacity="0.09"/>
<path d="M51 79C52.1046 79 53 78.1046 53 77C53 75.8954 52.1046 75 51 75C49.8954 75 49 75.8954 49 77C49 78.1046 49.8954 79 51 79Z" fill="#F3F4F6" fill-opacity="0.09"/>
<path d="M63 79C64.1046 79 65 78.1046 65 77C65 75.8954 64.1046 75 63 75C61.8954 75 61 75.8954 61 77C61 78.1046 61.8954 79 63 79Z" fill="#F3F4F6" fill-opacity="0.09"/>
<path d="M75 79C76.1046 79 77 78.1046 77 77C77 75.8954 76.1046 75 75 75C73.8954 75 73 75.8954 73 77C73 78.1046 73.8954 79 75 79Z" fill="#F3F4F6" fill-opacity="0.09"/>
<path d="M87 79C88.1046 79 89 78.1046 89 77C89 75.8954 88.1046 75 87 75C85.8954 75 85 75.8954 85 77C85 78.1046 85.8954 79 87 79Z" fill="#F3F4F6" fill-opacity="0.09"/>
<path d="M99 79C100.105 79 101 78.1046 101 77C101 75.8954 100.105 75 99 75C97.8954 75 97 75.8954 97 77C97 78.1046 97.8954 79 99 79Z" fill="#F3F4F6" fill-opacity="0.09"/>
<path d="M111 79C112.105 79 113 78.1046 113 77C113 75.8954 112.105 75 111 75C109.895 75 109 75.8954 109 77C109 78.1046 109.895 79 111 79Z" fill="#F3F4F6" fill-opacity="0.09"/>
<path d="M123 79C124.105 79 125 78.1046 125 77C125 75.8954 124.105 75 123 75C121.895 75 121 75.8954 121 77C121 78.1046 121.895 79 123 79Z" fill="#F3F4F6" fill-opacity="0.09"/>
<path d="M135 79C136.105 79 137 78.1046 137 77C137 75.8954 136.105 75 135 75C133.895 75 133 75.8954 133 77C133 78.1046 133.895 79 135 79Z" fill="#F3F4F6" fill-opacity="0.09"/>
<path d="M147 79C148.105 79 149 78.1046 149 77C149 75.8954 148.105 75 147 75C145.895 75 145 75.8954 145 77C145 78.1046 145.895 79 147 79Z" fill="#F3F4F6" fill-opacity="0.09"/>
<path d="M159 79C160.105 79 161 78.1046 161 77C161 75.8954 160.105 75 159 75C157.895 75 157 75.8954 157 77C157 78.1046 157.895 79 159 79Z" fill="#F3F4F6" fill-opacity="0.09"/>
<path d="M171 79C172.105 79 173 78.1046 173 77C173 75.8954 172.105 75 171 75C169.895 75 169 75.8954 169 77C169 78.1046 169.895 79 171 79Z" fill="#F3F4F6" fill-opacity="0.09"/>
<path d="M183 79C184.105 79 185 78.1046 185 77C185 75.8954 184.105 75 183 75C181.895 75 181 75.8954 181 77C181 78.1046 181.895 79 183 79Z" fill="#F3F4F6" fill-opacity="0.09"/>
<path d="M195 79C196.105 79 197 78.1046 197 77C197 75.8954 196.105 75 195 75C193.895 75 193 75.8954 193 77C193 78.1046 193.895 79 195 79Z" fill="#F3F4F6" fill-opacity="0.09"/>
<path d="M207 79C208.105 79 209 78.1046 209 77C209 75.8954 208.105 75 207 75C205.895 75 205 75.8954 205 77C205 78.1046 205.895 79 207 79Z" fill="#F3F4F6" fill-opacity="0.09"/>
<path d="M219 79C220.105 79 221 78.1046 221 77C221 75.8954 220.105 75 219 75C217.895 75 217 75.8954 217 77C217 78.1046 217.895 79 219 79Z" fill="#F3F4F6" fill-opacity="0.09"/>
<path d="M231 79C232.105 79 233 78.1046 233 77C233 75.8954 232.105 75 231 75C229.895 75 229 75.8954 229 77C229 78.1046 229.895 79 231 79Z" fill="#F3F4F6" fill-opacity="0.09"/>
<path d="M243 79C244.105 79 245 78.1046 245 77C245 75.8954 244.105 75 243 75C241.895 75 241 75.8954 241 77C241 78.1046 241.895 79 243 79Z" fill="#F3F4F6" fill-opacity="0.09"/>
<path d="M255 79C256.105 79 257 78.1046 257 77C257 75.8954 256.105 75 255 75C253.895 75 253 75.8954 253 77C253 78.1046 253.895 79 255 79Z" fill="#F3F4F6" fill-opacity="0.09"/>
<path d="M267 79C268.105 79 269 78.1046 269 77C269 75.8954 268.105 75 267 75C265.895 75 265 75.8954 265 77C265 78.1046 265.895 79 267 79Z" fill="#F3F4F6" fill-opacity="0.09"/>
<path d="M279 79C280.105 79 281 78.1046 281 77C281 75.8954 280.105 75 279 75C277.895 75 277 75.8954 277 77C277 78.1046 277.895 79 279 79Z" fill="#F3F4F6" fill-opacity="0.09"/>
<path d="M15 91C16.1046 91 17 90.1046 17 89C17 87.8954 16.1046 87 15 87C13.8954 87 13 87.8954 13 89C13 90.1046 13.8954 91 15 91Z" fill="#F3F4F6" fill-opacity="0.09"/>
<path d="M27 91C28.1046 91 29 90.1046 29 89C29 87.8954 28.1046 87 27 87C25.8954 87 25 87.8954 25 89C25 90.1046 25.8954 91 27 91Z" fill="#F3F4F6" fill-opacity="0.09"/>
<path d="M39 91C40.1046 91 41 90.1046 41 89C41 87.8954 40.1046 87 39 87C37.8954 87 37 87.8954 37 89C37 90.1046 37.8954 91 39 91Z" fill="#F3F4F6" fill-opacity="0.09"/>
<path d="M51 91C52.1046 91 53 90.1046 53 89C53 87.8954 52.1046 87 51 87C49.8954 87 49 87.8954 49 89C49 90.1046 49.8954 91 51 91Z" fill="#F3F4F6" fill-opacity="0.09"/>
<path d="M63 91C64.1046 91 65 90.1046 65 89C65 87.8954 64.1046 87 63 87C61.8954 87 61 87.8954 61 89C61 90.1046 61.8954 91 63 91Z" fill="#F3F4F6" fill-opacity="0.09"/>
<path d="M75 91C76.1046 91 77 90.1046 77 89C77 87.8954 76.1046 87 75 87C73.8954 87 73 87.8954 73 89C73 90.1046 73.8954 91 75 91Z" fill="#F3F4F6" fill-opacity="0.09"/>
<path d="M87 91C88.1046 91 89 90.1046 89 89C89 87.8954 88.1046 87 87 87C85.8954 87 85 87.8954 85 89C85 90.1046 85.8954 91 87 91Z" fill="#F3F4F6" fill-opacity="0.09"/>
<path d="M99 91C100.105 91 101 90.1046 101 89C101 87.8954 100.105 87 99 87C97.8954 87 97 87.8954 97 89C97 90.1046 97.8954 91 99 91Z" fill="#F3F4F6" fill-opacity="0.09"/>
<path d="M183 91C184.105 91 185 90.1046 185 89C185 87.8954 184.105 87 183 87C181.895 87 181 87.8954 181 89C181 90.1046 181.895 91 183 91Z" fill="#F3F4F6" fill-opacity="0.09"/>
<path d="M195 91C196.105 91 197 90.1046 197 89C197 87.8954 196.105 87 195 87C193.895 87 193 87.8954 193 89C193 90.1046 193.895 91 195 91Z" fill="#F3F4F6" fill-opacity="0.09"/>
<path d="M207 91C208.105 91 209 90.1046 209 89C209 87.8954 208.105 87 207 87C205.895 87 205 87.8954 205 89C205 90.1046 205.895 91 207 91Z" fill="#F3F4F6" fill-opacity="0.09"/>
<path d="M219 91C220.105 91 221 90.1046 221 89C221 87.8954 220.105 87 219 87C217.895 87 217 87.8954 217 89C217 90.1046 217.895 91 219 91Z" fill="#F3F4F6" fill-opacity="0.09"/>
<path d="M231 91C232.105 91 233 90.1046 233 89C233 87.8954 232.105 87 231 87C229.895 87 229 87.8954 229 89C229 90.1046 229.895 91 231 91Z" fill="#F3F4F6" fill-opacity="0.09"/>
<path d="M243 91C244.105 91 245 90.1046 245 89C245 87.8954 244.105 87 243 87C241.895 87 241 87.8954 241 89C241 90.1046 241.895 91 243 91Z" fill="#F3F4F6" fill-opacity="0.09"/>
<path d="M255 91C256.105 91 257 90.1046 257 89C257 87.8954 256.105 87 255 87C253.895 87 253 87.8954 253 89C253 90.1046 253.895 91 255 91Z" fill="#F3F4F6" fill-opacity="0.09"/>
<path d="M267 91C268.105 91 269 90.1046 269 89C269 87.8954 268.105 87 267 87C265.895 87 265 87.8954 265 89C265 90.1046 265.895 91 267 91Z" fill="#F3F4F6" fill-opacity="0.09"/>
<path d="M279 91C280.105 91 281 90.1046 281 89C281 87.8954 280.105 87 279 87C277.895 87 277 87.8954 277 89C277 90.1046 277.895 91 279 91Z" fill="#F3F4F6" fill-opacity="0.09"/>
<path d="M15 103C16.1046 103 17 102.105 17 101C17 99.8954 16.1046 99 15 99C13.8954 99 13 99.8954 13 101C13 102.105 13.8954 103 15 103Z" fill="#F3F4F6" fill-opacity="0.09"/>
<path d="M27 103C28.1046 103 29 102.105 29 101C29 99.8954 28.1046 99 27 99C25.8954 99 25 99.8954 25 101C25 102.105 25.8954 103 27 103Z" fill="#F3F4F6" fill-opacity="0.09"/>
<path d="M39 103C40.1046 103 41 102.105 41 101C41 99.8954 40.1046 99 39 99C37.8954 99 37 99.8954 37 101C37 102.105 37.8954 103 39 103Z" fill="#F3F4F6" fill-opacity="0.09"/>
<path d="M51 103C52.1046 103 53 102.105 53 101C53 99.8954 52.1046 99 51 99C49.8954 99 49 99.8954 49 101C49 102.105 49.8954 103 51 103Z" fill="#F3F4F6" fill-opacity="0.09"/>
<path d="M63 103C64.1046 103 65 102.105 65 101C65 99.8954 64.1046 99 63 99C61.8954 99 61 99.8954 61 101C61 102.105 61.8954 103 63 103Z" fill="#F3F4F6" fill-opacity="0.09"/>
<path d="M75 103C76.1046 103 77 102.105 77 101C77 99.8954 76.1046 99 75 99C73.8954 99 73 99.8954 73 101C73 102.105 73.8954 103 75 103Z" fill="#F3F4F6" fill-opacity="0.09"/>
<path d="M87 103C88.1046 103 89 102.105 89 101C89 99.8954 88.1046 99 87 99C85.8954 99 85 99.8954 85 101C85 102.105 85.8954 103 87 103Z" fill="#F3F4F6" fill-opacity="0.09"/>
<path d="M99 103C100.105 103 101 102.105 101 101C101 99.8954 100.105 99 99 99C97.8954 99 97 99.8954 97 101C97 102.105 97.8954 103 99 103Z" fill="#F3F4F6" fill-opacity="0.09"/>
<path d="M111 103C112.105 103 113 102.105 113 101C113 99.8954 112.105 99 111 99C109.895 99 109 99.8954 109 101C109 102.105 109.895 103 111 103Z" fill="#F3F4F6" fill-opacity="0.09"/>
<path d="M123 103C124.105 103 125 102.105 125 101C125 99.8954 124.105 99 123 99C121.895 99 121 99.8954 121 101C121 102.105 121.895 103 123 103Z" fill="#F3F4F6" fill-opacity="0.09"/>
<path d="M135 103C136.105 103 137 102.105 137 101C137 99.8954 136.105 99 135 99C133.895 99 133 99.8954 133 101C133 102.105 133.895 103 135 103Z" fill="#F3F4F6" fill-opacity="0.09"/>
<path d="M147 103C148.105 103 149 102.105 149 101C149 99.8954 148.105 99 147 99C145.895 99 145 99.8954 145 101C145 102.105 145.895 103 147 103Z" fill="#F3F4F6" fill-opacity="0.09"/>
<path d="M159 103C160.105 103 161 102.105 161 101C161 99.8954 160.105 99 159 99C157.895 99 157 99.8954 157 101C157 102.105 157.895 103 159 103Z" fill="#F3F4F6" fill-opacity="0.09"/>
<path d="M171 103C172.105 103 173 102.105 173 101C173 99.8954 172.105 99 171 99C169.895 99 169 99.8954 169 101C169 102.105 169.895 103 171 103Z" fill="#F3F4F6" fill-opacity="0.09"/>
<path d="M183 103C184.105 103 185 102.105 185 101C185 99.8954 184.105 99 183 99C181.895 99 181 99.8954 181 101C181 102.105 181.895 103 183 103Z" fill="#F3F4F6" fill-opacity="0.09"/>
<path d="M195 103C196.105 103 197 102.105 197 101C197 99.8954 196.105 99 195 99C193.895 99 193 99.8954 193 101C193 102.105 193.895 103 195 103Z" fill="#F3F4F6" fill-opacity="0.09"/>
<path d="M207 103C208.105 103 209 102.105 209 101C209 99.8954 208.105 99 207 99C205.895 99 205 99.8954 205 101C205 102.105 205.895 103 207 103Z" fill="#F3F4F6" fill-opacity="0.09"/>
<path d="M219 103C220.105 103 221 102.105 221 101C221 99.8954 220.105 99 219 99C217.895 99 217 99.8954 217 101C217 102.105 217.895 103 219 103Z" fill="#F3F4F6" fill-opacity="0.09"/>
<path d="M231 103C232.105 103 233 102.105 233 101C233 99.8954 232.105 99 231 99C229.895 99 229 99.8954 229 101C229 102.105 229.895 103 231 103Z" fill="#F3F4F6" fill-opacity="0.09"/>
<path d="M243 103C244.105 103 245 102.105 245 101C245 99.8954 244.105 99 243 99C241.895 99 241 99.8954 241 101C241 102.105 241.895 103 243 103Z" fill="#F3F4F6" fill-opacity="0.09"/>
<path d="M255 103C256.105 103 257 102.105 257 101C257 99.8954 256.105 99 255 99C253.895 99 253 99.8954 253 101C253 102.105 253.895 103 255 103Z" fill="#F3F4F6" fill-opacity="0.09"/>
<path d="M267 103C268.105 103 269 102.105 269 101C269 99.8954 268.105 99 267 99C265.895 99 265 99.8954 265 101C265 102.105 265.895 103 267 103Z" fill="#F3F4F6" fill-opacity="0.09"/>
<path d="M279 103C280.105 103 281 102.105 281 101C281 99.8954 280.105 99 279 99C277.895 99 277 99.8954 277 101C277 102.105 277.895 103 279 103Z" fill="#F3F4F6" fill-opacity="0.09"/>
<path d="M15 115C16.1046 115 17 114.105 17 113C17 111.895 16.1046 111 15 111C13.8954 111 13 111.895 13 113C13 114.105 13.8954 115 15 115Z" fill="#F3F4F6" fill-opacity="0.09"/>
<path d="M27 115C28.1046 115 29 114.105 29 113C29 111.895 28.1046 111 27 111C25.8954 111 25 111.895 25 113C25 114.105 25.8954 115 27 115Z" fill="#F6754F" fill-opacity="0.47"/>
<path d="M39 115C40.1046 115 41 114.105 41 113C41 111.895 40.1046 111 39 111C37.8954 111 37 111.895 37 113C37 114.105 37.8954 115 39 115Z" fill="#F3F4F6" fill-opacity="0.09"/>
<path d="M51 115C52.1046 115 53 114.105 53 113C53 111.895 52.1046 111 51 111C49.8954 111 49 111.895 49 113C49 114.105 49.8954 115 51 115Z" fill="#F3F4F6" fill-opacity="0.09"/>
<path d="M63 115C64.1046 115 65 114.105 65 113C65 111.895 64.1046 111 63 111C61.8954 111 61 111.895 61 113C61 114.105 61.8954 115 63 115Z" fill="#F3F4F6" fill-opacity="0.09"/>
<path d="M75 115C76.1046 115 77 114.105 77 113C77 111.895 76.1046 111 75 111C73.8954 111 73 111.895 73 113C73 114.105 73.8954 115 75 115Z" fill="#F3F4F6" fill-opacity="0.09"/>
<path d="M87 115C88.1046 115 89 114.105 89 113C89 111.895 88.1046 111 87 111C85.8954 111 85 111.895 85 113C85 114.105 85.8954 115 87 115Z" fill="#F3F4F6" fill-opacity="0.09"/>
<path d="M99 115C100.105 115 101 114.105 101 113C101 111.895 100.105 111 99 111C97.8954 111 97 111.895 97 113C97 114.105 97.8954 115 99 115Z" fill="#F3F4F6" fill-opacity="0.09"/>
<path d="M111 115C112.105 115 113 114.105 113 113C113 111.895 112.105 111 111 111C109.895 111 109 111.895 109 113C109 114.105 109.895 115 111 115Z" fill="#F3F4F6" fill-opacity="0.09"/>
<path d="M123 115C124.105 115 125 114.105 125 113C125 111.895 124.105 111 123 111C121.895 111 121 111.895 121 113C121 114.105 121.895 115 123 115Z" fill="#F3F4F6" fill-opacity="0.09"/>
<path d="M135 115C136.105 115 137 114.105 137 113C137 111.895 136.105 111 135 111C133.895 111 133 111.895 133 113C133 114.105 133.895 115 135 115Z" fill="#F3F4F6" fill-opacity="0.09"/>
<path d="M147 115C148.105 115 149 114.105 149 113C149 111.895 148.105 111 147 111C145.895 111 145 111.895 145 113C145 114.105 145.895 115 147 115Z" fill="#F3F4F6" fill-opacity="0.09"/>
<path d="M159 115C160.105 115 161 114.105 161 113C161 111.895 160.105 111 159 111C157.895 111 157 111.895 157 113C157 114.105 157.895 115 159 115Z" fill="#F3F4F6" fill-opacity="0.09"/>
<path d="M171 115C172.105 115 173 114.105 173 113C173 111.895 172.105 111 171 111C169.895 111 169 111.895 169 113C169 114.105 169.895 115 171 115Z" fill="#F3F4F6" fill-opacity="0.09"/>
<path d="M183 115C184.105 115 185 114.105 185 113C185 111.895 184.105 111 183 111C181.895 111 181 111.895 181 113C181 114.105 181.895 115 183 115Z" fill="#F3F4F6" fill-opacity="0.09"/>
<path d="M195 115C196.105 115 197 114.105 197 113C197 111.895 196.105 111 195 111C193.895 111 193 111.895 193 113C193 114.105 193.895 115 195 115Z" fill="#F3F4F6" fill-opacity="0.09"/>
<path d="M207 115C208.105 115 209 114.105 209 113C209 111.895 208.105 111 207 111C205.895 111 205 111.895 205 113C205 114.105 205.895 115 207 115Z" fill="#F3F4F6" fill-opacity="0.09"/>
<path d="M219 115C220.105 115 221 114.105 221 113C221 111.895 220.105 111 219 111C217.895 111 217 111.895 217 113C217 114.105 217.895 115 219 115Z" fill="#F3F4F6" fill-opacity="0.09"/>
<path d="M231 115C232.105 115 233 114.105 233 113C233 111.895 232.105 111 231 111C229.895 111 229 111.895 229 113C229 114.105 229.895 115 231 115Z" fill="#F3F4F6" fill-opacity="0.09"/>
<path d="M243 115C244.105 115 245 114.105 245 113C245 111.895 244.105 111 243 111C241.895 111 241 111.895 241 113C241 114.105 241.895 115 243 115Z" fill="#F3F4F6" fill-opacity="0.09"/>
<path d="M255 115C256.105 115 257 114.105 257 113C257 111.895 256.105 111 255 111C253.895 111 253 111.895 253 113C253 114.105 253.895 115 255 115Z" fill="#F3F4F6" fill-opacity="0.09"/>
<path d="M267 115C268.105 115 269 114.105 269 113C269 111.895 268.105 111 267 111C265.895 111 265 111.895 265 113C265 114.105 265.895 115 267 115Z" fill="#F3F4F6" fill-opacity="0.09"/>
<path opacity="0.5" d="M279 115C280.105 115 281 114.105 281 113C281 111.895 280.105 111 279 111C277.895 111 277 111.895 277 113C277 114.105 277.895 115 279 115Z" fill="#F3F4F6" fill-opacity="0.09"/>
<path d="M15 127C16.1046 127 17 126.105 17 125C17 123.895 16.1046 123 15 123C13.8954 123 13 123.895 13 125C13 126.105 13.8954 127 15 127Z" fill="#F3F4F6" fill-opacity="0.09"/>
<path d="M27 127C28.1046 127 29 126.105 29 125C29 123.895 28.1046 123 27 123C25.8954 123 25 123.895 25 125C25 126.105 25.8954 127 27 127Z" fill="#F3F4F6" fill-opacity="0.09"/>
<path d="M39 127C40.1046 127 41 126.105 41 125C41 123.895 40.1046 123 39 123C37.8954 123 37 123.895 37 125C37 126.105 37.8954 127 39 127Z" fill="#F3F4F6" fill-opacity="0.09"/>
<path d="M51 127C52.1046 127 53 126.105 53 125C53 123.895 52.1046 123 51 123C49.8954 123 49 123.895 49 125C49 126.105 49.8954 127 51 127Z" fill="#F3F4F6" fill-opacity="0.09"/>
<path d="M63 127C64.1046 127 65 126.105 65 125C65 123.895 64.1046 123 63 123C61.8954 123 61 123.895 61 125C61 126.105 61.8954 127 63 127Z" fill="#F3F4F6" fill-opacity="0.09"/>
<path d="M75 127C76.1046 127 77 126.105 77 125C77 123.895 76.1046 123 75 123C73.8954 123 73 123.895 73 125C73 126.105 73.8954 127 75 127Z" fill="#F3F4F6" fill-opacity="0.09"/>
<path d="M87 127C88.1046 127 89 126.105 89 125C89 123.895 88.1046 123 87 123C85.8954 123 85 123.895 85 125C85 126.105 85.8954 127 87 127Z" fill="#F3F4F6" fill-opacity="0.09"/>
<path d="M99 127C100.105 127 101 126.105 101 125C101 123.895 100.105 123 99 123C97.8954 123 97 123.895 97 125C97 126.105 97.8954 127 99 127Z" fill="#F3F4F6" fill-opacity="0.09"/>
<path d="M111 127C112.105 127 113 126.105 113 125C113 123.895 112.105 123 111 123C109.895 123 109 123.895 109 125C109 126.105 109.895 127 111 127Z" fill="#F3F4F6" fill-opacity="0.09"/>
<path d="M123 127C124.105 127 125 126.105 125 125C125 123.895 124.105 123 123 123C121.895 123 121 123.895 121 125C121 126.105 121.895 127 123 127Z" fill="#F3F4F6" fill-opacity="0.09"/>
<path d="M135 127C136.105 127 137 126.105 137 125C137 123.895 136.105 123 135 123C133.895 123 133 123.895 133 125C133 126.105 133.895 127 135 127Z" fill="#F3F4F6" fill-opacity="0.09"/>
<path d="M147 127C148.105 127 149 126.105 149 125C149 123.895 148.105 123 147 123C145.895 123 145 123.895 145 125C145 126.105 145.895 127 147 127Z" fill="#F3F4F6" fill-opacity="0.09"/>
<path d="M159 127C160.105 127 161 126.105 161 125C161 123.895 160.105 123 159 123C157.895 123 157 123.895 157 125C157 126.105 157.895 127 159 127Z" fill="#00F58C" fill-opacity="0.13"/>
<path d="M171 127C172.105 127 173 126.105 173 125C173 123.895 172.105 123 171 123C169.895 123 169 123.895 169 125C169 126.105 169.895 127 171 127Z" fill="#F3F4F6" fill-opacity="0.09"/>
<path d="M183 127C184.105 127 185 126.105 185 125C185 123.895 184.105 123 183 123C181.895 123 181 123.895 181 125C181 126.105 181.895 127 183 127Z" fill="#F3F4F6" fill-opacity="0.09"/>
<path d="M195 127C196.105 127 197 126.105 197 125C197 123.895 196.105 123 195 123C193.895 123 193 123.895 193 125C193 126.105 193.895 127 195 127Z" fill="#F3F4F6" fill-opacity="0.09"/>
<path d="M207 127C208.105 127 209 126.105 209 125C209 123.895 208.105 123 207 123C205.895 123 205 123.895 205 125C205 126.105 205.895 127 207 127Z" fill="#F3F4F6" fill-opacity="0.09"/>
<path d="M219 127C220.105 127 221 126.105 221 125C221 123.895 220.105 123 219 123C217.895 123 217 123.895 217 125C217 126.105 217.895 127 219 127Z" fill="#F3F4F6" fill-opacity="0.09"/>
<path d="M231 127C232.105 127 233 126.105 233 125C233 123.895 232.105 123 231 123C229.895 123 229 123.895 229 125C229 126.105 229.895 127 231 127Z" fill="#F3F4F6" fill-opacity="0.09"/>
<path d="M243 127C244.105 127 245 126.105 245 125C245 123.895 244.105 123 243 123C241.895 123 241 123.895 241 125C241 126.105 241.895 127 243 127Z" fill="#F3F4F6" fill-opacity="0.09"/>
<path d="M255 127C256.105 127 257 126.105 257 125C257 123.895 256.105 123 255 123C253.895 123 253 123.895 253 125C253 126.105 253.895 127 255 127Z" fill="#F3F4F6" fill-opacity="0.09"/>
<path d="M267 127C268.105 127 269 126.105 269 125C269 123.895 268.105 123 267 123C265.895 123 265 123.895 265 125C265 126.105 265.895 127 267 127Z" fill="#F3F4F6" fill-opacity="0.09"/>
<path d="M279 127C280.105 127 281 126.105 281 125C281 123.895 280.105 123 279 123C277.895 123 277 123.895 277 125C277 126.105 277.895 127 279 127Z" fill="#F3F4F6" fill-opacity="0.09"/>
<path d="M15 139C16.1046 139 17 138.105 17 137C17 135.895 16.1046 135 15 135C13.8954 135 13 135.895 13 137C13 138.105 13.8954 139 15 139Z" fill="#F3F4F6" fill-opacity="0.09"/>
<path d="M27 139C28.1046 139 29 138.105 29 137C29 135.895 28.1046 135 27 135C25.8954 135 25 135.895 25 137C25 138.105 25.8954 139 27 139Z" fill="#F3F4F6" fill-opacity="0.09"/>
<path d="M39 139C40.1046 139 41 138.105 41 137C41 135.895 40.1046 135 39 135C37.8954 135 37 135.895 37 137C37 138.105 37.8954 139 39 139Z" fill="#F3F4F6" fill-opacity="0.09"/>
<path d="M51 139C52.1046 139 53 138.105 53 137C53 135.895 52.1046 135 51 135C49.8954 135 49 135.895 49 137C49 138.105 49.8954 139 51 139Z" fill="#F3F4F6" fill-opacity="0.09"/>
<path d="M63 139C64.1046 139 65 138.105 65 137C65 135.895 64.1046 135 63 135C61.8954 135 61 135.895 61 137C61 138.105 61.8954 139 63 139Z" fill="#F3F4F6" fill-opacity="0.09"/>
<path d="M75 139C76.1046 139 77 138.105 77 137C77 135.895 76.1046 135 75 135C73.8954 135 73 135.895 73 137C73 138.105 73.8954 139 75 139Z" fill="#F3F4F6" fill-opacity="0.09"/>
<path d="M87 139C88.1046 139 89 138.105 89 137C89 135.895 88.1046 135 87 135C85.8954 135 85 135.895 85 137C85 138.105 85.8954 139 87 139Z" fill="#F3F4F6" fill-opacity="0.09"/>
<path d="M99 139C100.105 139 101 138.105 101 137C101 135.895 100.105 135 99 135C97.8954 135 97 135.895 97 137C97 138.105 97.8954 139 99 139Z" fill="#F3F4F6" fill-opacity="0.09"/>
<path d="M111 139C112.105 139 113 138.105 113 137C113 135.895 112.105 135 111 135C109.895 135 109 135.895 109 137C109 138.105 109.895 139 111 139Z" fill="#F3F4F6" fill-opacity="0.09"/>
<path d="M123 139C124.105 139 125 138.105 125 137C125 135.895 124.105 135 123 135C121.895 135 121 135.895 121 137C121 138.105 121.895 139 123 139Z" fill="#F3F4F6" fill-opacity="0.09"/>
<path d="M135 139C136.105 139 137 138.105 137 137C137 135.895 136.105 135 135 135C133.895 135 133 135.895 133 137C133 138.105 133.895 139 135 139Z" fill="#F3F4F6" fill-opacity="0.09"/>
<path d="M147 139C148.105 139 149 138.105 149 137C149 135.895 148.105 135 147 135C145.895 135 145 135.895 145 137C145 138.105 145.895 139 147 139Z" fill="#F3F4F6" fill-opacity="0.09"/>
<path d="M159 139C160.105 139 161 138.105 161 137C161 135.895 160.105 135 159 135C157.895 135 157 135.895 157 137C157 138.105 157.895 139 159 139Z" fill="#F3F4F6" fill-opacity="0.09"/>
<path d="M171 139C172.105 139 173 138.105 173 137C173 135.895 172.105 135 171 135C169.895 135 169 135.895 169 137C169 138.105 169.895 139 171 139Z" fill="#F3F4F6" fill-opacity="0.09"/>
<path d="M183 139C184.105 139 185 138.105 185 137C185 135.895 184.105 135 183 135C181.895 135 181 135.895 181 137C181 138.105 181.895 139 183 139Z" fill="#F3F4F6" fill-opacity="0.09"/>
<path d="M195 139C196.105 139 197 138.105 197 137C197 135.895 196.105 135 195 135C193.895 135 193 135.895 193 137C193 138.105 193.895 139 195 139Z" fill="#F3F4F6" fill-opacity="0.09"/>
<path d="M207 139C208.105 139 209 138.105 209 137C209 135.895 208.105 135 207 135C205.895 135 205 135.895 205 137C205 138.105 205.895 139 207 139Z" fill="#F3F4F6" fill-opacity="0.09"/>
<path d="M219 139C220.105 139 221 138.105 221 137C221 135.895 220.105 135 219 135C217.895 135 217 135.895 217 137C217 138.105 217.895 139 219 139Z" fill="#F3F4F6" fill-opacity="0.09"/>
<path d="M231 139C232.105 139 233 138.105 233 137C233 135.895 232.105 135 231 135C229.895 135 229 135.895 229 137C229 138.105 229.895 139 231 139Z" fill="#F3F4F6" fill-opacity="0.09"/>
<path d="M243 139C244.105 139 245 138.105 245 137C245 135.895 244.105 135 243 135C241.895 135 241 135.895 241 137C241 138.105 241.895 139 243 139Z" fill="#F3F4F6" fill-opacity="0.09"/>
<path d="M255 139C256.105 139 257 138.105 257 137C257 135.895 256.105 135 255 135C253.895 135 253 135.895 253 137C253 138.105 253.895 139 255 139Z" fill="#F3F4F6" fill-opacity="0.09"/>
<path d="M267 139C268.105 139 269 138.105 269 137C269 135.895 268.105 135 267 135C265.895 135 265 135.895 265 137C265 138.105 265.895 139 267 139Z" fill="#F6754F" fill-opacity="0.47"/>
<path d="M279 139C280.105 139 281 138.105 281 137C281 135.895 280.105 135 279 135C277.895 135 277 135.895 277 137C277 138.105 277.895 139 279 139Z" fill="#F3F4F6" fill-opacity="0.09"/>
<path d="M15 151C16.1046 151 17 150.105 17 149C17 147.895 16.1046 147 15 147C13.8954 147 13 147.895 13 149C13 150.105 13.8954 151 15 151Z" fill="#F3F4F6" fill-opacity="0.09"/>
<path d="M27 151C28.1046 151 29 150.105 29 149C29 147.895 28.1046 147 27 147C25.8954 147 25 147.895 25 149C25 150.105 25.8954 151 27 151Z" fill="#F3F4F6" fill-opacity="0.09"/>
<path d="M39 151C40.1046 151 41 150.105 41 149C41 147.895 40.1046 147 39 147C37.8954 147 37 147.895 37 149C37 150.105 37.8954 151 39 151Z" fill="#F3F4F6" fill-opacity="0.09"/>
<path d="M51 151C52.1046 151 53 150.105 53 149C53 147.895 52.1046 147 51 147C49.8954 147 49 147.895 49 149C49 150.105 49.8954 151 51 151Z" fill="#F3F4F6" fill-opacity="0.09"/>
<path d="M63 151C64.1046 151 65 150.105 65 149C65 147.895 64.1046 147 63 147C61.8954 147 61 147.895 61 149C61 150.105 61.8954 151 63 151Z" fill="#F3F4F6" fill-opacity="0.09"/>
<path d="M75 151C76.1046 151 77 150.105 77 149C77 147.895 76.1046 147 75 147C73.8954 147 73 147.895 73 149C73 150.105 73.8954 151 75 151Z" fill="#F6754F" fill-opacity="0.47"/>
<path d="M87 151C88.1046 151 89 150.105 89 149C89 147.895 88.1046 147 87 147C85.8954 147 85 147.895 85 149C85 150.105 85.8954 151 87 151Z" fill="#F3F4F6" fill-opacity="0.09"/>
<path d="M99 151C100.105 151 101 150.105 101 149C101 147.895 100.105 147 99 147C97.8954 147 97 147.895 97 149C97 150.105 97.8954 151 99 151Z" fill="#F3F4F6" fill-opacity="0.09"/>
<path d="M111 151C112.105 151 113 150.105 113 149C113 147.895 112.105 147 111 147C109.895 147 109 147.895 109 149C109 150.105 109.895 151 111 151Z" fill="#F3F4F6" fill-opacity="0.09"/>
<path d="M123 151C124.105 151 125 150.105 125 149C125 147.895 124.105 147 123 147C121.895 147 121 147.895 121 149C121 150.105 121.895 151 123 151Z" fill="#F3F4F6" fill-opacity="0.09"/>
<path d="M135 151C136.105 151 137 150.105 137 149C137 147.895 136.105 147 135 147C133.895 147 133 147.895 133 149C133 150.105 133.895 151 135 151Z" fill="#F3F4F6" fill-opacity="0.09"/>
<path d="M147 151C148.105 151 149 150.105 149 149C149 147.895 148.105 147 147 147C145.895 147 145 147.895 145 149C145 150.105 145.895 151 147 151Z" fill="#F3F4F6" fill-opacity="0.09"/>
<path d="M159 151C160.105 151 161 150.105 161 149C161 147.895 160.105 147 159 147C157.895 147 157 147.895 157 149C157 150.105 157.895 151 159 151Z" fill="#F3F4F6" fill-opacity="0.09"/>
<path d="M171 151C172.105 151 173 150.105 173 149C173 147.895 172.105 147 171 147C169.895 147 169 147.895 169 149C169 150.105 169.895 151 171 151Z" fill="#F3F4F6" fill-opacity="0.09"/>
<path d="M183 151C184.105 151 185 150.105 185 149C185 147.895 184.105 147 183 147C181.895 147 181 147.895 181 149C181 150.105 181.895 151 183 151Z" fill="#F3F4F6" fill-opacity="0.09"/>
<path d="M195 151C196.105 151 197 150.105 197 149C197 147.895 196.105 147 195 147C193.895 147 193 147.895 193 149C193 150.105 193.895 151 195 151Z" fill="#F3F4F6" fill-opacity="0.09"/>
<path d="M207 151C208.105 151 209 150.105 209 149C209 147.895 208.105 147 207 147C205.895 147 205 147.895 205 149C205 150.105 205.895 151 207 151Z" fill="#F3F4F6" fill-opacity="0.09"/>
<path d="M219 151C220.105 151 221 150.105 221 149C221 147.895 220.105 147 219 147C217.895 147 217 147.895 217 149C217 150.105 217.895 151 219 151Z" fill="#F3F4F6" fill-opacity="0.09"/>
<path d="M231 151C232.105 151 233 150.105 233 149C233 147.895 232.105 147 231 147C229.895 147 229 147.895 229 149C229 150.105 229.895 151 231 151Z" fill="#F3F4F6" fill-opacity="0.09"/>
<path d="M243 151C244.105 151 245 150.105 245 149C245 147.895 244.105 147 243 147C241.895 147 241 147.895 241 149C241 150.105 241.895 151 243 151Z" fill="#F3F4F6" fill-opacity="0.09"/>
<path d="M255 151C256.105 151 257 150.105 257 149C257 147.895 256.105 147 255 147C253.895 147 253 147.895 253 149C253 150.105 253.895 151 255 151Z" fill="#F3F4F6" fill-opacity="0.09"/>
<path d="M267 151C268.105 151 269 150.105 269 149C269 147.895 268.105 147 267 147C265.895 147 265 147.895 265 149C265 150.105 265.895 151 267 151Z" fill="#F3F4F6" fill-opacity="0.09"/>
<path d="M279 151C280.105 151 281 150.105 281 149C281 147.895 280.105 147 279 147C277.895 147 277 147.895 277 149C277 150.105 277.895 151 279 151Z" fill="#F3F4F6" fill-opacity="0.09"/>
<path d="M15 163C16.1046 163 17 162.105 17 161C17 159.895 16.1046 159 15 159C13.8954 159 13 159.895 13 161C13 162.105 13.8954 163 15 163Z" fill="#F3F4F6" fill-opacity="0.09"/>
<path d="M27 163C28.1046 163 29 162.105 29 161C29 159.895 28.1046 159 27 159C25.8954 159 25 159.895 25 161C25 162.105 25.8954 163 27 163Z" fill="#F3F4F6" fill-opacity="0.09"/>
<path d="M39 163C40.1046 163 41 162.105 41 161C41 159.895 40.1046 159 39 159C37.8954 159 37 159.895 37 161C37 162.105 37.8954 163 39 163Z" fill="#F3F4F6" fill-opacity="0.09"/>
<path d="M51 163C52.1046 163 53 162.105 53 161C53 159.895 52.1046 159 51 159C49.8954 159 49 159.895 49 161C49 162.105 49.8954 163 51 163Z" fill="#F3F4F6" fill-opacity="0.09"/>
<path d="M63 163C64.1046 163 65 162.105 65 161C65 159.895 64.1046 159 63 159C61.8954 159 61 159.895 61 161C61 162.105 61.8954 163 63 163Z" fill="#F3F4F6" fill-opacity="0.09"/>
<path d="M75 163C76.1046 163 77 162.105 77 161C77 159.895 76.1046 159 75 159C73.8954 159 73 159.895 73 161C73 162.105 73.8954 163 75 163Z" fill="#F3F4F6" fill-opacity="0.09"/>
<path d="M87 163C88.1046 163 89 162.105 89 161C89 159.895 88.1046 159 87 159C85.8954 159 85 159.895 85 161C85 162.105 85.8954 163 87 163Z" fill="#F3F4F6" fill-opacity="0.09"/>
<path d="M99 163C100.105 163 101 162.105 101 161C101 159.895 100.105 159 99 159C97.8954 159 97 159.895 97 161C97 162.105 97.8954 163 99 163Z" fill="#F3F4F6" fill-opacity="0.09"/>
<path d="M111 163C112.105 163 113 162.105 113 161C113 159.895 112.105 159 111 159C109.895 159 109 159.895 109 161C109 162.105 109.895 163 111 163Z" fill="#F3F4F6" fill-opacity="0.09"/>
<path d="M123 163C124.105 163 125 162.105 125 161C125 159.895 124.105 159 123 159C121.895 159 121 159.895 121 161C121 162.105 121.895 163 123 163Z" fill="#F3F4F6" fill-opacity="0.09"/>
<path d="M135 163C136.105 163 137 162.105 137 161C137 159.895 136.105 159 135 159C133.895 159 133 159.895 133 161C133 162.105 133.895 163 135 163Z" fill="#F3F4F6" fill-opacity="0.09"/>
<path d="M147 163C148.105 163 149 162.105 149 161C149 159.895 148.105 159 147 159C145.895 159 145 159.895 145 161C145 162.105 145.895 163 147 163Z" fill="#F3F4F6" fill-opacity="0.09"/>
<path d="M159 163C160.105 163 161 162.105 161 161C161 159.895 160.105 159 159 159C157.895 159 157 159.895 157 161C157 162.105 157.895 163 159 163Z" fill="#F3F4F6" fill-opacity="0.09"/>
<path d="M171 163C172.105 163 173 162.105 173 161C173 159.895 172.105 159 171 159C169.895 159 169 159.895 169 161C169 162.105 169.895 163 171 163Z" fill="#F3F4F6" fill-opacity="0.09"/>
<path d="M183 163C184.105 163 185 162.105 185 161C185 159.895 184.105 159 183 159C181.895 159 181 159.895 181 161C181 162.105 181.895 163 183 163Z" fill="#F3F4F6" fill-opacity="0.09"/>
<path d="M195 163C196.105 163 197 162.105 197 161C197 159.895 196.105 159 195 159C193.895 159 193 159.895 193 161C193 162.105 193.895 163 195 163Z" fill="#F3F4F6" fill-opacity="0.09"/>
<path d="M207 163C208.105 163 209 162.105 209 161C209 159.895 208.105 159 207 159C205.895 159 205 159.895 205 161C205 162.105 205.895 163 207 163Z" fill="#F3F4F6" fill-opacity="0.09"/>
<path d="M219 163C220.105 163 221 162.105 221 161C221 159.895 220.105 159 219 159C217.895 159 217 159.895 217 161C217 162.105 217.895 163 219 163Z" fill="#F3F4F6" fill-opacity="0.09"/>
<path d="M231 163C232.105 163 233 162.105 233 161C233 159.895 232.105 159 231 159C229.895 159 229 159.895 229 161C229 162.105 229.895 163 231 163Z" fill="#F3F4F6" fill-opacity="0.09"/>
<path d="M243 163C244.105 163 245 162.105 245 161C245 159.895 244.105 159 243 159C241.895 159 241 159.895 241 161C241 162.105 241.895 163 243 163Z" fill="#F3F4F6" fill-opacity="0.09"/>
<path d="M255 163C256.105 163 257 162.105 257 161C257 159.895 256.105 159 255 159C253.895 159 253 159.895 253 161C253 162.105 253.895 163 255 163Z" fill="#F3F4F6" fill-opacity="0.09"/>
<path d="M267 163C268.105 163 269 162.105 269 161C269 159.895 268.105 159 267 159C265.895 159 265 159.895 265 161C265 162.105 265.895 163 267 163Z" fill="#F3F4F6" fill-opacity="0.09"/>
<path d="M279 163C280.105 163 281 162.105 281 161C281 159.895 280.105 159 279 159C277.895 159 277 159.895 277 161C277 162.105 277.895 163 279 163Z" fill="#F3F4F6" fill-opacity="0.09"/>
<path d="M15 175C16.1046 175 17 174.105 17 173C17 171.895 16.1046 171 15 171C13.8954 171 13 171.895 13 173C13 174.105 13.8954 175 15 175Z" fill="#F3F4F6" fill-opacity="0.09"/>
<path d="M27 175C28.1046 175 29 174.105 29 173C29 171.895 28.1046 171 27 171C25.8954 171 25 171.895 25 173C25 174.105 25.8954 175 27 175Z" fill="#F3F4F6" fill-opacity="0.09"/>
<path d="M39 175C40.1046 175 41 174.105 41 173C41 171.895 40.1046 171 39 171C37.8954 171 37 171.895 37 173C37 174.105 37.8954 175 39 175Z" fill="#F3F4F6" fill-opacity="0.09"/>
<path d="M51 175C52.1046 175 53 174.105 53 173C53 171.895 52.1046 171 51 171C49.8954 171 49 171.895 49 173C49 174.105 49.8954 175 51 175Z" fill="#F3F4F6" fill-opacity="0.09"/>
<path d="M63 175C64.1046 175 65 174.105 65 173C65 171.895 64.1046 171 63 171C61.8954 171 61 171.895 61 173C61 174.105 61.8954 175 63 175Z" fill="#F3F4F6" fill-opacity="0.09"/>
<path d="M75 175C76.1046 175 77 174.105 77 173C77 171.895 76.1046 171 75 171C73.8954 171 73 171.895 73 173C73 174.105 73.8954 175 75 175Z" fill="#F3F4F6" fill-opacity="0.09"/>
<path d="M87 175C88.1046 175 89 174.105 89 173C89 171.895 88.1046 171 87 171C85.8954 171 85 171.895 85 173C85 174.105 85.8954 175 87 175Z" fill="#F3F4F6" fill-opacity="0.09"/>
<path d="M99 175C100.105 175 101 174.105 101 173C101 171.895 100.105 171 99 171C97.8954 171 97 171.895 97 173C97 174.105 97.8954 175 99 175Z" fill="#F3F4F6" fill-opacity="0.09"/>
<path d="M111 175C112.105 175 113 174.105 113 173C113 171.895 112.105 171 111 171C109.895 171 109 171.895 109 173C109 174.105 109.895 175 111 175Z" fill="#F3F4F6" fill-opacity="0.09"/>
<path d="M123 175C124.105 175 125 174.105 125 173C125 171.895 124.105 171 123 171C121.895 171 121 171.895 121 173C121 174.105 121.895 175 123 175Z" fill="#F3F4F6" fill-opacity="0.09"/>
<path d="M135 175C136.105 175 137 174.105 137 173C137 171.895 136.105 171 135 171C133.895 171 133 171.895 133 173C133 174.105 133.895 175 135 175Z" fill="#F3F4F6" fill-opacity="0.09"/>
<path d="M147 175C148.105 175 149 174.105 149 173C149 171.895 148.105 171 147 171C145.895 171 145 171.895 145 173C145 174.105 145.895 175 147 175Z" fill="#F3F4F6" fill-opacity="0.09"/>
<path d="M159 175C160.105 175 161 174.105 161 173C161 171.895 160.105 171 159 171C157.895 171 157 171.895 157 173C157 174.105 157.895 175 159 175Z" fill="#F3F4F6" fill-opacity="0.09"/>
<path d="M171 175C172.105 175 173 174.105 173 173C173 171.895 172.105 171 171 171C169.895 171 169 171.895 169 173C169 174.105 169.895 175 171 175Z" fill="#F3F4F6" fill-opacity="0.09"/>
<path d="M183 175C184.105 175 185 174.105 185 173C185 171.895 184.105 171 183 171C181.895 171 181 171.895 181 173C181 174.105 181.895 175 183 175Z" fill="#F3F4F6" fill-opacity="0.09"/>
<path d="M195 175C196.105 175 197 174.105 197 173C197 171.895 196.105 171 195 171C193.895 171 193 171.895 193 173C193 174.105 193.895 175 195 175Z" fill="#F3F4F6" fill-opacity="0.09"/>
<path d="M207 175C208.105 175 209 174.105 209 173C209 171.895 208.105 171 207 171C205.895 171 205 171.895 205 173C205 174.105 205.895 175 207 175Z" fill="#F3F4F6" fill-opacity="0.09"/>
<path d="M219 175C220.105 175 221 174.105 221 173C221 171.895 220.105 171 219 171C217.895 171 217 171.895 217 173C217 174.105 217.895 175 219 175Z" fill="#F3F4F6" fill-opacity="0.09"/>
<path d="M231 175C232.105 175 233 174.105 233 173C233 171.895 232.105 171 231 171C229.895 171 229 171.895 229 173C229 174.105 229.895 175 231 175Z" fill="#F3F4F6" fill-opacity="0.09"/>
<path d="M243 175C244.105 175 245 174.105 245 173C245 171.895 244.105 171 243 171C241.895 171 241 171.895 241 173C241 174.105 241.895 175 243 175Z" fill="#F3F4F6" fill-opacity="0.09"/>
<path d="M255 175C256.105 175 257 174.105 257 173C257 171.895 256.105 171 255 171C253.895 171 253 171.895 253 173C253 174.105 253.895 175 255 175Z" fill="#F3F4F6" fill-opacity="0.09"/>
<path d="M267 175C268.105 175 269 174.105 269 173C269 171.895 268.105 171 267 171C265.895 171 265 171.895 265 173C265 174.105 265.895 175 267 175Z" fill="#F3F4F6" fill-opacity="0.09"/>
<path d="M279 175C280.105 175 281 174.105 281 173C281 171.895 280.105 171 279 171C277.895 171 277 171.895 277 173C277 174.105 277.895 175 279 175Z" fill="#F3F4F6" fill-opacity="0.09"/>
<path d="M15 187C16.1046 187 17 186.105 17 185C17 183.895 16.1046 183 15 183C13.8954 183 13 183.895 13 185C13 186.105 13.8954 187 15 187Z" fill="#F3F4F6" fill-opacity="0.09"/>
<path d="M27 187C28.1046 187 29 186.105 29 185C29 183.895 28.1046 183 27 183C25.8954 183 25 183.895 25 185C25 186.105 25.8954 187 27 187Z" fill="#F3F4F6" fill-opacity="0.09"/>
<path d="M39 187C40.1046 187 41 186.105 41 185C41 183.895 40.1046 183 39 183C37.8954 183 37 183.895 37 185C37 186.105 37.8954 187 39 187Z" fill="#F3F4F6" fill-opacity="0.09"/>
<path d="M51 187C52.1046 187 53 186.105 53 185C53 183.895 52.1046 183 51 183C49.8954 183 49 183.895 49 185C49 186.105 49.8954 187 51 187Z" fill="#F3F4F6" fill-opacity="0.09"/>
<path d="M63 187C64.1046 187 65 186.105 65 185C65 183.895 64.1046 183 63 183C61.8954 183 61 183.895 61 185C61 186.105 61.8954 187 63 187Z" fill="#F3F4F6" fill-opacity="0.09"/>
<path d="M75 187C76.1046 187 77 186.105 77 185C77 183.895 76.1046 183 75 183C73.8954 183 73 183.895 73 185C73 186.105 73.8954 187 75 187Z" fill="#F3F4F6" fill-opacity="0.09"/>
<path d="M87 187C88.1046 187 89 186.105 89 185C89 183.895 88.1046 183 87 183C85.8954 183 85 183.895 85 185C85 186.105 85.8954 187 87 187Z" fill="#F3F4F6" fill-opacity="0.09"/>
<path d="M99 187C100.105 187 101 186.105 101 185C101 183.895 100.105 183 99 183C97.8954 183 97 183.895 97 185C97 186.105 97.8954 187 99 187Z" fill="#F3F4F6" fill-opacity="0.09"/>
<path d="M111 187C112.105 187 113 186.105 113 185C113 183.895 112.105 183 111 183C109.895 183 109 183.895 109 185C109 186.105 109.895 187 111 187Z" fill="#F3F4F6" fill-opacity="0.09"/>
<path d="M123 187C124.105 187 125 186.105 125 185C125 183.895 124.105 183 123 183C121.895 183 121 183.895 121 185C121 186.105 121.895 187 123 187Z" fill="#F3F4F6" fill-opacity="0.09"/>
<path d="M135 187C136.105 187 137 186.105 137 185C137 183.895 136.105 183 135 183C133.895 183 133 183.895 133 185C133 186.105 133.895 187 135 187Z" fill="#F3F4F6" fill-opacity="0.09"/>
<path d="M147 187C148.105 187 149 186.105 149 185C149 183.895 148.105 183 147 183C145.895 183 145 183.895 145 185C145 186.105 145.895 187 147 187Z" fill="#F3F4F6" fill-opacity="0.09"/>
<path d="M159 187C160.105 187 161 186.105 161 185C161 183.895 160.105 183 159 183C157.895 183 157 183.895 157 185C157 186.105 157.895 187 159 187Z" fill="#F3F4F6" fill-opacity="0.09"/>
<path d="M171 187C172.105 187 173 186.105 173 185C173 183.895 172.105 183 171 183C169.895 183 169 183.895 169 185C169 186.105 169.895 187 171 187Z" fill="#F3F4F6" fill-opacity="0.09"/>
<path d="M183 187C184.105 187 185 186.105 185 185C185 183.895 184.105 183 183 183C181.895 183 181 183.895 181 185C181 186.105 181.895 187 183 187Z" fill="#F3F4F6" fill-opacity="0.09"/>
<path d="M195 187C196.105 187 197 186.105 197 185C197 183.895 196.105 183 195 183C193.895 183 193 183.895 193 185C193 186.105 193.895 187 195 187Z" fill="#F3F4F6" fill-opacity="0.09"/>
<path d="M207 187C208.105 187 209 186.105 209 185C209 183.895 208.105 183 207 183C205.895 183 205 183.895 205 185C205 186.105 205.895 187 207 187Z" fill="#F3F4F6" fill-opacity="0.09"/>
<path d="M219 187C220.105 187 221 186.105 221 185C221 183.895 220.105 183 219 183C217.895 183 217 183.895 217 185C217 186.105 217.895 187 219 187Z" fill="#F3F4F6" fill-opacity="0.09"/>
<path d="M231 187C232.105 187 233 186.105 233 185C233 183.895 232.105 183 231 183C229.895 183 229 183.895 229 185C229 186.105 229.895 187 231 187Z" fill="#F3F4F6" fill-opacity="0.09"/>
<path d="M243 187C244.105 187 245 186.105 245 185C245 183.895 244.105 183 243 183C241.895 183 241 183.895 241 185C241 186.105 241.895 187 243 187Z" fill="#F3F4F6" fill-opacity="0.09"/>
<path d="M255 187C256.105 187 257 186.105 257 185C257 183.895 256.105 183 255 183C253.895 183 253 183.895 253 185C253 186.105 253.895 187 255 187Z" fill="#F3F4F6" fill-opacity="0.09"/>
<path d="M267 187C268.105 187 269 186.105 269 185C269 183.895 268.105 183 267 183C265.895 183 265 183.895 265 185C265 186.105 265.895 187 267 187Z" fill="#F3F4F6" fill-opacity="0.09"/>
<path d="M279 187C280.105 187 281 186.105 281 185C281 183.895 280.105 183 279 183C277.895 183 277 183.895 277 185C277 186.105 277.895 187 279 187Z" fill="#F3F4F6" fill-opacity="0.09"/>
<path d="M178.995 89.0003L173.995 91.8873V86.1133L178.995 89.0003ZM111.662 89.0003C111.662 89.7076 111.381 90.386 110.881 90.8861C110.381 91.3863 109.702 91.6673 108.995 91.6673C108.288 91.6673 107.609 91.3863 107.109 90.8861C106.609 90.386 106.328 89.7076 106.328 89.0003C106.328 88.2929 106.609 87.6146 107.109 87.1144C107.609 86.6143 108.288 86.3333 108.995 86.3333C109.702 86.3333 110.381 86.6143 110.881 87.1144C111.381 87.6146 111.662 88.2929 111.662 89.0003ZM173.162 89.5003H169.273V88.5003H173.162V89.5003ZM165.384 89.5003H161.495V88.5003H165.384V89.5003ZM157.606 89.5003H153.717V88.5003H157.606V89.5003ZM149.828 89.5003H145.939V88.5003H149.828V89.5003ZM142.051 89.5003H138.162V88.5003H142.051V89.5003ZM134.273 89.5003H130.384V88.5003H134.273V89.5003ZM126.495 89.5003H122.606V88.5003H126.495V89.5003ZM118.717 89.5003H114.828V88.5003H118.717V89.5003ZM110.939 89.5003H108.995V88.5003H110.939V89.5003Z" fill="#F6754F" fill-opacity="0.47"/>
</g>
</g>
<path d="M115.243 39.0744C115.173 38.8004 115.03 38.5504 114.83 38.3503C114.63 38.1503 114.38 38.0075 114.106 37.9368L109.249 36.6844C109.166 36.6609 109.093 36.6109 109.041 36.5422C108.989 36.4735 108.961 36.3897 108.961 36.3036C108.961 36.2174 108.989 36.1337 109.041 36.0649C109.093 35.9962 109.166 35.9463 109.249 35.9228L114.106 34.6696C114.379 34.599 114.629 34.4563 114.829 34.2564C115.03 34.0564 115.172 33.8066 115.243 33.5327L116.496 28.6759C116.519 28.5927 116.569 28.5194 116.638 28.4672C116.706 28.415 116.79 28.3867 116.877 28.3867C116.963 28.3867 117.047 28.415 117.116 28.4672C117.185 28.5194 117.235 28.5927 117.258 28.6759L118.51 33.5327C118.58 33.8067 118.723 34.0568 118.923 34.2568C119.123 34.4569 119.373 34.5997 119.647 34.6704L124.504 35.922C124.588 35.945 124.661 35.9948 124.714 36.0638C124.766 36.1327 124.795 36.2169 124.795 36.3036C124.795 36.3902 124.766 36.4745 124.714 36.5434C124.661 36.6123 124.588 36.6621 124.504 36.6852L119.647 37.9368C119.373 38.0075 119.123 38.1503 118.923 38.3503C118.723 38.5504 118.58 38.8004 118.51 39.0744L117.257 43.9313C117.234 44.0145 117.184 44.0878 117.115 44.14C117.046 44.1922 116.962 44.2204 116.876 44.2204C116.79 44.2204 116.706 44.1922 116.637 44.14C116.568 44.0878 116.518 44.0145 116.495 43.9313L115.243 39.0744Z" stroke="white" stroke-linecap="round" stroke-linejoin="round"/>
<path d="M123.207 29.1797V32.3464" stroke="white" stroke-linecap="round" stroke-linejoin="round"/>
<path d="M124.792 30.7617H121.625" stroke="white" stroke-linecap="round" stroke-linejoin="round"/>
<path d="M110.543 40.2617V41.8451" stroke="white" stroke-linecap="round" stroke-linejoin="round"/>
<path d="M111.333 41.0547H109.75" stroke="white" stroke-linecap="round" stroke-linejoin="round"/>
<path d="M186.022 84.3311C185.79 85.0786 185.598 85.8431 185.317 86.5705C184.37 89.0135 182.835 91.1035 181.281 93.1688C177.349 98.3953 172.598 102.739 167.213 106.401C166.761 106.707 166.393 106.732 165.884 106.544C163.999 105.846 162.092 105.209 160.193 104.547C159.959 104.465 159.735 104.36 159.301 104.18C160.21 103.845 160.932 103.569 161.659 103.312C162.901 102.873 162.985 102.729 162.97 101.433C162.952 99.9442 162.955 98.4523 162.993 96.9634C163.011 96.2436 162.747 95.792 162.072 95.5578C157.431 93.9456 152.797 92.318 148.149 90.7274C147.772 90.5979 147.275 90.6056 146.898 90.7351C142.274 92.3149 137.663 93.9317 133.045 95.5316C132.346 95.7735 132.056 96.2205 132.074 96.9804C132.114 98.5725 132.111 100.166 132.074 101.758C132.057 102.517 132.334 102.962 133.051 103.193C133.896 103.466 134.723 103.796 135.731 104.164C135.396 104.317 135.213 104.419 135.017 104.488C133.026 105.192 131.038 105.909 129.033 106.57C128.729 106.67 128.263 106.627 128.002 106.452C121.154 101.854 115.379 96.1804 111.025 89.0982C110.164 87.6957 109.458 86.2191 109.186 84.5669C109.173 84.4806 109.104 84.405 109.06 84.3234C108.991 84.3341 108.922 84.3465 108.853 84.3573C108.934 85.1495 108.962 85.951 109.107 86.7308C109.623 89.519 110.871 92.0251 112.185 94.4912C115.654 101.008 120.494 106.319 126.354 110.719C126.435 110.781 126.515 110.843 126.599 110.901C128.336 112.103 128.156 113.319 126.694 114.58C124.884 116.138 122.669 116.55 120.38 116.259C114.285 115.483 109.759 112.085 106.186 107.262C92.3797 88.622 99.7849 62.2722 117.206 48.8461C122.825 44.5151 129.407 41.6314 136.256 39.9499C152.609 35.9317 167.455 39.9298 180.189 51.1026C196.377 65.3055 202.165 90.9509 187.835 108.605C184.735 112.426 180.818 115.063 175.961 116.088C173.574 116.592 171.252 116.393 169.098 115.12C168.858 114.978 168.62 114.818 168.417 114.626C166.845 113.158 166.871 112.071 168.492 110.88C173.413 107.262 177.632 102.944 180.959 97.7834C183.032 94.5667 184.822 91.1959 185.809 87.4599C186.073 86.4611 186.126 85.4053 186.276 84.3742C186.19 84.3588 186.105 84.3449 186.019 84.3295L186.022 84.3311ZM142.974 65.3101C142.898 63.5977 142.485 62.0133 141.491 60.6061C139.174 57.3309 134.924 57.2492 132.496 60.4412C130.316 63.3064 130.406 67.6251 132.703 70.441C134.988 73.24 138.992 73.2015 141.236 70.3624C142.409 68.8782 142.905 67.1643 142.975 65.3086L142.974 65.3101ZM158.53 58.0815C156.607 58.0738 154.844 58.9986 153.788 60.546C151.942 63.254 151.751 66.1378 153.173 69.0647C154.163 71.1022 155.78 72.4262 158.12 72.5125C160.37 72.5957 161.983 71.4259 163.139 69.5718C164.85 66.8298 164.668 63.0228 162.724 60.4504C161.617 58.9847 160.156 58.1539 158.528 58.0815H158.53Z" fill="#F6754F"/>
<path d="M128.156 121.135C130.728 120.242 133.093 119.402 135.477 118.62C135.765 118.525 136.166 118.71 136.495 118.828C139.875 120.025 143.255 121.223 146.626 122.45C147.236 122.672 147.775 122.679 148.391 122.456C151.832 121.203 155.284 119.977 158.741 118.769C159.075 118.652 159.504 118.595 159.828 118.701C162.025 119.427 164.206 120.202 166.392 120.965C166.503 121.004 166.604 121.069 166.812 121.17C166.532 121.295 166.36 121.385 166.178 121.449C160.216 123.587 154.258 125.729 148.287 127.844C147.886 127.986 147.361 128.043 146.975 127.906C140.904 125.77 134.848 123.595 128.79 121.426C128.65 121.375 128.517 121.301 128.158 121.135H128.156Z" fill="#F6754F"/>
<path d="M133.544 107.959C135.79 107.182 137.823 106.459 139.873 105.792C140.145 105.704 140.52 105.858 140.824 105.964C142.72 106.63 144.619 107.293 146.497 108.006C147.238 108.289 147.904 108.256 148.634 107.979C150.49 107.276 152.357 106.598 154.242 105.983C154.707 105.83 155.303 105.824 155.771 105.974C157.631 106.567 159.466 107.248 161.54 107.977C160.442 108.376 159.557 108.705 158.668 109.022C155.17 110.274 151.677 111.533 148.168 112.754C147.794 112.883 147.301 112.898 146.931 112.769C142.634 111.262 138.35 109.716 134.064 108.179C133.971 108.145 133.881 108.102 133.543 107.957L133.544 107.959Z" fill="#F6754F"/>
<path d="M136.57 96.6715C138.379 96.0396 139.978 95.4785 141.577 94.9206C143.377 94.2933 145.175 93.6583 146.983 93.0541C147.278 92.9555 147.654 92.9046 147.935 93.0002C151.326 94.1592 154.706 95.3491 158.088 96.5343C158.153 96.5574 158.205 96.6206 158.382 96.7532C157.19 97.1817 156.082 97.5808 154.975 97.9769C152.797 98.7568 150.614 99.5198 148.446 100.326C147.815 100.56 147.264 100.565 146.621 100.329C143.568 99.2038 140.496 98.1311 137.432 97.0368C137.207 96.9566 136.992 96.8503 136.572 96.6699L136.57 96.6715Z" fill="#F6754F"/>
<defs>
<linearGradient id="paint0_linear_446_17827" x1="146.502" y1="-1.61619" x2="146.521" y2="180.003" gradientUnits="userSpaceOnUse">
<stop offset="0.058" stop-color="#D9D9D9"/>
<stop offset="0.747" stop-color="#D9D9D9"/>
<stop offset="0.993" stop-color="#D9D9D9" stop-opacity="0"/>
</linearGradient>
</defs>
</svg>
