<svg width="35" height="35" viewBox="0 0 35 35" fill="none" xmlns="http://www.w3.org/2000/svg">
<path d="M0 10.5C0 4.70101 4.70101 0 10.5 0H24.5C30.299 0 35 4.70101 35 10.5V24.5C35 30.299 30.299 35 24.5 35H10.5C4.70101 35 0 30.299 0 24.5V10.5Z" fill="#F3F4F6"/>
<path d="M8.29297 22.5355C9.51824 22.1143 10.6446 21.7177 11.7803 21.3481C11.9171 21.3037 12.1085 21.391 12.2649 21.4463C13.8751 22.0117 15.4853 22.577 17.0911 23.1562C17.3814 23.261 17.6382 23.2646 17.9315 23.1591C19.5707 22.5676 21.2151 21.9891 22.8617 21.4187C23.021 21.3634 23.2255 21.3365 23.3797 21.3867C24.426 21.7294 25.465 22.0953 26.5062 22.4555C26.5593 22.4737 26.6073 22.5042 26.7063 22.5523C26.5731 22.6112 26.4909 22.6534 26.4043 22.684C23.5645 23.6931 20.7262 24.7045 17.882 25.7028C17.6913 25.7697 17.4411 25.7966 17.257 25.7319C14.3655 24.7234 11.4806 23.6968 8.59492 22.6731C8.52798 22.649 8.46468 22.6141 8.2937 22.5355H8.29297Z" fill="#1C7158"/>
<path d="M10.8601 16.3165C11.9297 15.9498 12.8981 15.6086 13.8745 15.2935C14.0041 15.2521 14.183 15.3248 14.3278 15.375C15.2308 15.6893 16.1352 16.0022 17.0301 16.3391C17.383 16.4722 17.7002 16.457 18.048 16.326C18.9321 15.9942 19.8212 15.6741 20.7191 15.3838C20.941 15.3117 21.2247 15.3088 21.4474 15.3794C22.3336 15.6595 23.2074 15.9811 24.1955 16.3253C23.6724 16.5137 23.2511 16.6687 22.8276 16.8186C21.1614 17.4094 19.4974 18.0038 17.8261 18.5801C17.6479 18.6412 17.4128 18.6485 17.2368 18.5874C15.19 17.8758 13.1491 17.146 11.1075 16.4206C11.0631 16.4046 11.0202 16.3842 10.8594 16.3158L10.8601 16.3165Z" fill="#1C7158"/>
<path d="M12.3008 10.9877C13.1623 10.6893 13.9241 10.4245 14.6858 10.1611C15.543 9.86497 16.3993 9.5652 17.2608 9.27998C17.4012 9.23341 17.5802 9.2094 17.7141 9.25451C19.3294 9.80167 20.9395 10.3634 22.5504 10.9229C22.5817 10.9338 22.6065 10.9636 22.6909 11.0262C22.1226 11.2285 21.5951 11.4169 21.0676 11.6039C20.0301 11.9721 18.9903 12.3323 17.9579 12.7128C17.6574 12.8234 17.3947 12.8256 17.0884 12.7142C15.6339 12.1831 14.1707 11.6767 12.7111 11.1601C12.6042 11.1223 12.5016 11.0721 12.3015 10.9869L12.3008 10.9877Z" fill="#1C7158"/>
</svg>
