<svg width="146" height="133" viewBox="0 0 146 133" fill="none" xmlns="http://www.w3.org/2000/svg">
<path d="M130.102 68.0148C129.755 69.1223 129.467 70.255 129.047 71.3329C127.631 74.9524 125.336 78.049 123.013 81.109C117.135 88.8528 110.031 95.288 101.981 100.714C101.305 101.168 100.755 101.205 99.9945 100.926C97.1766 99.8917 94.3243 98.9486 91.4858 97.9667C91.1364 97.8456 90.8007 97.6903 90.1522 97.4232C91.5109 96.9276 92.5911 96.5189 93.6781 96.1375C95.5347 95.4867 95.6602 95.2743 95.6374 93.3538C95.61 91.1478 95.6146 88.9373 95.6717 86.7313C95.6991 85.6648 95.304 84.9957 94.2946 84.6486C87.357 82.26 80.4285 79.8485 73.4795 77.4918C72.9155 77.3 72.1733 77.3114 71.6092 77.5032C64.6967 79.8439 57.8025 82.2394 50.8991 84.6098C49.8532 84.9683 49.4193 85.6306 49.4467 86.7564C49.5061 89.1154 49.5016 91.4766 49.4467 93.8356C49.4216 94.9591 49.835 95.6191 50.9083 95.9617C52.1711 96.3659 53.4065 96.8545 54.9137 97.4003C54.4136 97.6264 54.1396 97.7771 53.8473 97.8799C50.8694 98.9235 47.8985 99.9854 44.9001 100.965C44.4456 101.113 43.7491 101.05 43.3586 100.789C33.1212 93.9772 24.4868 85.5712 17.9785 75.078C16.6906 72.9999 15.6356 70.8122 15.2291 68.3642C15.2085 68.2363 15.1058 68.1244 15.0395 68.0034C14.9368 68.0194 14.834 68.0376 14.7312 68.0536C14.8523 69.2274 14.8934 70.4149 15.1103 71.5704C15.8822 75.7014 17.7479 79.4146 19.7118 83.0684C24.8979 92.7235 32.1347 100.593 40.8946 107.113C41.0156 107.204 41.1367 107.295 41.2623 107.382C43.8587 109.163 43.5893 110.965 41.4039 112.833C38.6978 115.142 35.3865 115.751 31.9634 115.32C22.8518 114.171 16.0854 109.136 10.7441 101.99C-9.89753 74.3724 1.17343 35.3317 27.2181 15.4391C35.6195 9.02219 45.4596 4.74955 55.6993 2.25812C80.1477 -3.69526 102.342 2.22844 121.381 18.7824C145.582 39.8259 154.235 77.8229 132.812 103.979C128.177 109.64 122.321 113.548 115.06 115.066C111.49 115.813 108.019 115.519 104.799 113.632C104.441 113.422 104.084 113.185 103.781 112.901C101.431 110.725 101.47 109.115 103.893 107.35C111.25 101.99 117.558 95.5917 122.532 87.9462C125.63 83.1803 128.307 78.186 129.782 72.6505C130.177 71.1707 130.257 69.6065 130.481 68.0787C130.353 68.0559 130.225 68.0353 130.097 68.0125L130.102 68.0148ZM65.7426 39.8327C65.6284 37.2956 65.0119 34.9481 63.5252 32.8631C60.061 28.0104 53.708 27.8894 50.077 32.6188C46.8183 36.864 46.953 43.2627 50.3876 47.4349C53.8039 51.5819 59.7892 51.5248 63.1439 47.3184C64.8977 45.1193 65.6399 42.5799 65.7449 39.8304L65.7426 39.8327ZM88.9989 29.1226C86.1239 29.1111 83.4886 30.4813 81.9106 32.7741C79.1497 36.7864 78.8643 41.059 80.9903 45.3956C82.4701 48.4145 84.8884 50.3762 88.3869 50.504C91.7507 50.6273 94.1622 48.8941 95.8909 46.1469C98.4485 42.0844 98.1768 36.4438 95.2698 32.6325C93.6141 30.4608 91.431 29.2299 88.9967 29.1226H88.9989Z" fill="#F6754F"/>
<path d="M43.5898 122.542C47.4354 121.22 50.9705 119.976 54.5352 118.816C54.9645 118.676 55.5651 118.95 56.0561 119.124C61.1097 120.898 66.1634 122.673 71.2033 124.49C72.1145 124.819 72.9206 124.831 73.8409 124.499C78.9859 122.643 84.1468 120.827 89.3146 119.037C89.8148 118.863 90.4565 118.779 90.9406 118.937C94.2244 120.012 97.4854 121.161 100.753 122.291C100.92 122.348 101.071 122.444 101.381 122.595C100.963 122.78 100.705 122.912 100.434 123.008C91.5206 126.176 82.6122 129.35 73.6856 132.483C73.0873 132.693 72.3017 132.778 71.724 132.574C62.6489 129.409 53.5944 126.187 44.5375 122.974C44.3275 122.899 44.1288 122.789 43.5921 122.542H43.5898Z" fill="#F6754F"/>
<path d="M51.6468 103.025C55.0037 101.874 58.0432 100.803 61.1078 99.8139C61.5143 99.6838 62.0761 99.9121 62.5305 100.07C65.3645 101.056 68.203 102.038 71.0119 103.095C72.1194 103.513 73.1151 103.465 74.2066 103.054C76.9812 102.013 79.7718 101.008 82.5898 100.097C83.2863 99.871 84.1769 99.8619 84.8757 100.083C87.6571 100.963 90.3997 101.972 93.5009 103.052C91.859 103.644 90.5368 104.13 89.2077 104.6C83.9782 106.455 78.7556 108.32 73.5101 110.129C72.9506 110.321 72.213 110.344 71.6604 110.152C65.2366 107.918 58.8311 105.628 52.4232 103.351C52.2839 103.301 52.1492 103.237 51.6445 103.022L51.6468 103.025Z" fill="#F6754F"/>
<path d="M56.1719 86.2982C58.8757 85.362 61.2666 84.5307 63.6576 83.7041C66.3477 82.7746 69.0355 81.8338 71.7393 80.9386C72.18 80.7924 72.7418 80.7171 73.162 80.8587C78.2316 82.5759 83.2852 84.3389 88.3411 86.095C88.4393 86.1292 88.517 86.2229 88.7819 86.4193C86.9984 87.0541 85.3428 87.6456 83.6871 88.2325C80.4307 89.388 77.1674 90.5184 73.927 91.7127C72.9838 92.0598 72.1595 92.0666 71.1981 91.7173C66.6331 90.0502 62.0408 88.4608 57.4598 86.8395C57.1241 86.7207 56.8022 86.5631 56.1742 86.296L56.1719 86.2982Z" fill="#F6754F"/>
</svg>
