<svg width="197" height="56" viewBox="0 0 197 56" fill="none" xmlns="http://www.w3.org/2000/svg">
<g clip-path="url(#clip0_786_26269)">
<path d="M51.3531 28.0011C51.2168 28.4362 51.1037 28.8812 50.9386 29.3046C50.3824 30.7266 49.4808 31.9431 48.5684 33.1452C46.2592 36.1874 43.4683 38.7155 40.3059 40.8471C40.0404 41.0256 39.8242 41.0399 39.5254 40.9305C38.4184 40.5241 37.2979 40.1536 36.1827 39.7678C36.0455 39.7203 35.9136 39.6593 35.6588 39.5543C36.1926 39.3596 36.6169 39.199 37.044 39.0492C37.7733 38.7935 37.8227 38.7101 37.8137 37.9556C37.8029 37.089 37.8047 36.2206 37.8272 35.354C37.8379 34.935 37.6827 34.6721 37.2862 34.5358C34.5607 33.5974 31.8388 32.65 29.1089 31.7242C28.8873 31.6488 28.5957 31.6533 28.3741 31.7287C25.6585 32.6482 22.9501 33.5893 20.2381 34.5205C19.8272 34.6614 19.6568 34.9215 19.6675 35.3638C19.6909 36.2906 19.6891 37.2182 19.6675 38.1449C19.6577 38.5863 19.82 38.8456 20.2417 38.9801C20.7378 39.1389 21.2231 39.3309 21.8152 39.5453C21.6188 39.6341 21.5111 39.6934 21.3963 39.7337C20.2264 40.1437 19.0593 40.5609 17.8813 40.9457C17.7028 41.0041 17.4292 40.9789 17.2758 40.8767C13.254 38.2005 9.86194 34.8982 7.30513 30.7759C6.79915 29.9595 6.38468 29.1001 6.22499 28.1384C6.21691 28.0881 6.17654 28.0442 6.15053 27.9966C6.11015 28.0029 6.06978 28.0101 6.02941 28.0164C6.07696 28.4775 6.09311 28.944 6.17834 29.3979C6.48156 31.0208 7.21452 32.4796 7.98605 33.915C10.0234 37.708 12.8664 40.7995 16.3078 43.3608C16.3553 43.3967 16.4029 43.4326 16.4522 43.4667C17.4723 44.1664 17.3664 44.8743 16.5078 45.6081C15.4448 46.5151 14.1439 46.7546 12.7991 46.5851C9.21959 46.1338 6.56141 44.1557 4.46303 41.3486C-3.64609 30.4987 0.703175 15.1614 10.9349 7.34657C14.2354 4.82565 18.1011 3.14713 22.1239 2.16836C31.7285 -0.170445 40.4477 2.1567 47.927 8.65997C57.4347 16.927 60.834 31.8543 52.418 42.1299C50.5969 44.3539 48.2966 45.8889 45.4438 46.4855C44.0415 46.7789 42.6779 46.6631 41.413 45.9221C41.2721 45.8396 41.1322 45.7463 41.0128 45.635C40.0897 44.7801 40.105 44.1476 41.0568 43.4541C43.9474 41.3486 46.4252 38.8348 48.3792 35.8312C49.5965 33.9589 50.648 31.9969 51.2275 29.8223C51.3827 29.2409 51.4141 28.6264 51.502 28.0262C51.4518 28.0173 51.4016 28.0092 51.3513 28.0002L51.3531 28.0011ZM26.0694 16.9297C26.0246 15.933 25.7823 15.0107 25.1983 14.1916C23.8374 12.2853 21.3416 12.2377 19.9151 14.0957C18.6349 15.7634 18.6879 18.2772 20.0371 19.9162C21.3792 21.5454 23.7306 21.523 25.0485 19.8705C25.7375 19.0065 26.029 18.0089 26.0703 16.9288L26.0694 16.9297ZM35.2058 12.7222C34.0763 12.7177 33.041 13.2559 32.4211 14.1567C31.3364 15.7329 31.2243 17.4114 32.0595 19.1151C32.6409 20.3011 33.5909 21.0717 34.9653 21.1219C36.2868 21.1704 37.2342 20.4895 37.9133 19.4102C38.9181 17.8142 38.8113 15.5983 37.6693 14.101C37.0188 13.2479 36.1612 12.7643 35.2049 12.7222H35.2058Z" fill="#F6754F"/>
<path d="M17.3672 49.4225C18.8779 48.903 20.2667 48.4141 21.6671 47.9584C21.8358 47.9036 22.0717 48.0113 22.2646 48.0795C24.2499 48.7765 26.2353 49.4736 28.2152 50.1877C28.5732 50.3169 28.8899 50.3214 29.2514 50.1913C31.2726 49.4619 33.3001 48.7487 35.3303 48.0454C35.5268 47.9772 35.7789 47.944 35.9691 48.0059C37.2592 48.4284 38.5403 48.8797 39.8241 49.3238C39.8895 49.3462 39.9488 49.3839 40.0708 49.4431C39.9066 49.5158 39.8052 49.5678 39.6985 49.6055C36.197 50.8498 32.6973 52.0968 29.1904 53.3277C28.9554 53.4102 28.6468 53.4434 28.4198 53.3635C24.8546 52.1201 21.2975 50.8543 17.7395 49.592C17.657 49.5624 17.5789 49.5194 17.3681 49.4225H17.3672Z" fill="#F6754F"/>
<path d="M20.5321 41.755C21.8509 41.3029 23.045 40.8821 24.2489 40.4937C24.4086 40.4425 24.6293 40.5322 24.8079 40.5941C25.9212 40.9817 27.0363 41.3675 28.1398 41.7828C28.5749 41.947 28.966 41.9282 29.3949 41.7667C30.4849 41.3576 31.5812 40.9629 32.6882 40.6049C32.9618 40.5161 33.3117 40.5125 33.5862 40.5995C34.6789 40.9449 35.7564 41.3414 36.9747 41.7658C36.3296 41.9981 35.8102 42.1892 35.2881 42.374C33.2337 43.1025 31.1819 43.8355 29.1212 44.546C28.9014 44.6213 28.6117 44.6303 28.3946 44.555C25.8709 43.6776 23.3545 42.7777 20.8372 41.8833C20.7824 41.8636 20.7295 41.8385 20.5312 41.7541L20.5321 41.755Z" fill="#F6754F"/>
<path d="M22.3086 35.1842C23.3708 34.8164 24.3101 34.4898 25.2494 34.165C26.3062 33.7999 27.3621 33.4303 28.4243 33.0786C28.5974 33.0212 28.8181 32.9916 28.9832 33.0472C30.9748 33.7219 32.9602 34.4144 34.9464 35.1043C34.985 35.1178 35.0155 35.1546 35.1196 35.2317C34.4189 35.4811 33.7685 35.7135 33.1181 35.944C31.8388 36.398 30.5568 36.8421 29.2838 37.3113C28.9132 37.4476 28.5894 37.4503 28.2117 37.3131C26.4183 36.6582 24.6142 36.0338 22.8146 35.3968C22.6827 35.3501 22.5562 35.2882 22.3095 35.1833L22.3086 35.1842Z" fill="#F6754F"/>
</g>
<path d="M71.1385 43V11.9103H83.0091C84.8305 11.9103 86.4635 12.0673 87.9081 12.3814C89.3526 12.6954 90.5931 13.1822 91.6294 13.8416C92.6657 14.5011 93.4508 15.349 93.9847 16.3853C94.55 17.4217 94.8326 18.6621 94.8326 20.1067C94.8326 21.3 94.5814 22.352 94.0789 23.2628C93.6078 24.1735 92.8541 24.9272 91.8178 25.5238C90.7815 26.0891 89.4154 26.4973 87.7196 26.7486V27.3609C90.6402 27.5808 92.7599 28.3502 94.0789 29.6691C95.4293 30.9567 96.1044 32.6682 96.1044 34.8036C96.1044 36.5936 95.6648 38.101 94.7855 39.3258C93.9376 40.5191 92.6343 41.4298 90.8757 42.0579C89.1171 42.686 86.8717 43 84.1396 43H71.1385ZM76.0375 38.7134H84.4222C86.6519 38.7134 88.3163 38.3522 89.4154 37.63C90.5146 36.8763 91.0641 35.73 91.0641 34.1913C91.0641 32.4326 90.3261 31.1137 88.8502 30.2344C87.3742 29.3551 85.1602 28.9154 82.2083 28.9154H76.0375V38.7134ZM76.0375 25.3354H81.3133C84.171 25.3354 86.2908 24.9586 87.6725 24.2049C89.0857 23.4198 89.7923 22.2421 89.7923 20.6719C89.7923 19.1332 89.1799 18.0026 87.9552 17.2803C86.7304 16.5267 84.8933 16.1498 82.4438 16.1498H76.0375V25.3354ZM110.19 43.6124C107.426 43.6124 105.338 42.6703 103.925 40.786C102.512 38.8704 101.805 35.997 101.805 32.1657V18.5051H106.939V31.6004C106.939 34.1756 107.332 36.0912 108.117 37.3473C108.902 38.6035 110.143 39.2316 111.838 39.2316C112.781 39.2316 113.613 38.996 114.335 38.525C115.057 38.0539 115.685 37.3944 116.219 36.5465C116.785 35.6986 117.224 34.7094 117.538 33.5789C117.884 32.4169 118.119 31.1451 118.245 29.7633V18.5051H123.332V32.8252V43H118.998L119.234 35.2276H118.433C118.025 37.1746 117.444 38.7762 116.69 40.0323C115.968 41.2571 115.057 42.1678 113.958 42.7645C112.89 43.3297 111.634 43.6124 110.19 43.6124ZM130.381 43V27.9262V18.5051H134.809L134.526 26.1362H135.327C135.766 24.252 136.347 22.7132 137.07 21.5198C137.823 20.2951 138.766 19.3844 139.896 18.7877C141.058 18.1911 142.408 17.8927 143.947 17.8927C146.679 17.8927 148.752 18.8662 150.165 20.8133C151.61 22.7603 152.332 25.7279 152.332 29.7162V43H147.15V30.2344C147.15 27.5023 146.742 25.5081 145.926 24.252C145.109 22.9644 143.884 22.3206 142.251 22.3206C140.838 22.3206 139.629 22.776 138.624 23.6867C137.651 24.566 136.897 25.7279 136.363 27.1725C135.829 28.6171 135.531 30.1873 135.468 31.8831V43H130.381ZM167.8 43.6124C165.728 43.6124 163.938 43.0785 162.43 42.0108C160.923 40.9117 159.777 39.4043 158.992 37.4886C158.206 35.5416 157.814 33.2962 157.814 30.7525C157.814 28.2716 158.175 26.0734 158.897 24.1578C159.651 22.2107 160.75 20.6876 162.195 19.5885C163.671 18.4894 165.476 17.9398 167.612 17.9398C169.308 17.9398 170.705 18.2853 171.804 18.9761C172.903 19.6356 173.783 20.5463 174.442 21.7083C175.133 22.8702 175.651 24.1578 175.997 25.5709H176.939C176.782 24.6602 176.625 23.7181 176.468 22.7446C176.311 21.7397 176.185 20.7819 176.091 19.8712C175.997 18.929 175.95 18.0968 175.95 17.3746V9.79055H181.131V30.941V43H176.656L176.845 36.2168H175.997C175.62 37.7556 175.086 39.0745 174.395 40.1737C173.704 41.2728 172.809 42.1207 171.71 42.7174C170.642 43.314 169.339 43.6124 167.8 43.6124ZM169.213 39.2787C170.313 39.2787 171.286 39.0274 172.134 38.525C172.982 38.0225 173.688 37.363 174.254 36.5465C174.819 35.73 175.243 34.8507 175.526 33.9086C175.84 32.9351 175.997 32.0244 175.997 31.1765V30.517C175.997 29.8889 175.902 29.2138 175.714 28.4915C175.557 27.7378 175.29 26.9998 174.913 26.2775C174.568 25.5238 174.128 24.8486 173.594 24.252C173.06 23.6553 172.417 23.1842 171.663 22.8388C170.941 22.462 170.124 22.2735 169.213 22.2735C167.894 22.2735 166.78 22.6504 165.869 23.4041C164.99 24.1264 164.314 25.1313 163.843 26.4188C163.372 27.7064 163.137 29.1824 163.137 30.8468C163.137 32.5426 163.372 34.0342 163.843 35.3218C164.346 36.5779 165.052 37.5515 165.963 38.2423C166.874 38.9332 167.957 39.2787 169.213 39.2787ZM188.159 43V9.79055H193.199V43H188.159Z" fill="#F6754F"/>
<defs>
<clipPath id="clip0_786_26269">
<rect width="57" height="56" fill="white"/>
</clipPath>
</defs>
</svg>
