<svg width="114" height="15" viewBox="0 0 114 15" fill="none" xmlns="http://www.w3.org/2000/svg">
<path d="M62.548 7.87763H65.4504C65.6477 7.87763 65.8369 7.95601 65.9764 8.09553C66.1159 8.23505 66.1943 8.42427 66.1943 8.62158C66.1943 8.81889 66.1159 9.00812 65.9764 9.14764C65.8369 9.28716 65.6477 9.36554 65.4504 9.36554H61.9501C61.8957 9.36573 61.8432 9.38554 61.8022 9.42133L60.7467 10.3327C60.711 10.3631 60.6855 10.4037 60.6736 10.4491C60.6616 10.4944 60.6639 10.5423 60.68 10.5864C60.6961 10.6304 60.7253 10.6685 60.7636 10.6954C60.802 10.7224 60.8477 10.737 60.8946 10.7372H65.2746C65.3313 10.7372 65.3834 10.7446 65.4401 10.7446C65.9834 10.7407 66.5043 10.5278 66.8949 10.1502C67.2854 9.77247 67.5156 9.25897 67.5378 8.71613C67.5599 8.17328 67.3722 7.64275 67.0137 7.23454C66.6552 6.82633 66.1533 6.57176 65.6122 6.52363H62.4885C62.2912 6.52363 62.102 6.44525 61.9624 6.30574C61.8229 6.16622 61.7445 5.97699 61.7445 5.77968C61.7445 5.58237 61.8229 5.39314 61.9624 5.25363C62.102 5.11411 62.2912 5.03573 62.4885 5.03573H65.9814C66.0384 5.03549 66.0933 5.01431 66.1357 4.97621L67.1178 4.06487C67.1516 4.03331 67.1751 3.99235 67.1855 3.94728C67.1958 3.9022 67.1924 3.85506 67.1757 3.81194C67.1589 3.76882 67.1297 3.73169 67.0917 3.70533C67.0537 3.67898 67.0087 3.6646 66.9625 3.66406H62.4922C61.9392 3.67566 61.4127 3.9035 61.0257 4.29873C60.6386 4.69397 60.4219 5.22511 60.4219 5.77828C60.4219 6.33145 60.6386 6.8626 61.0257 7.25783C61.4127 7.65306 61.9392 7.88091 62.4922 7.89251L62.548 7.87763Z" fill="#696969"/>
<path d="M79.4397 3.6463C79.4094 3.64642 79.3794 3.65254 79.3515 3.66431C79.3235 3.67609 79.2982 3.69328 79.2769 3.71489C79.2556 3.7365 79.2389 3.76211 79.2275 3.79024C79.2162 3.81837 79.2106 3.84846 79.211 3.87878V10.5056C79.2107 10.5666 79.2346 10.6254 79.2775 10.6689C79.3203 10.7125 79.3786 10.7373 79.4397 10.738H84.7516C84.7832 10.7375 84.8143 10.7307 84.8433 10.7179C84.8722 10.7051 84.8982 10.6867 84.9199 10.6636L85.5848 9.95037C85.6158 9.91749 85.6366 9.87623 85.6445 9.83169C85.6524 9.78714 85.647 9.74126 85.6291 9.69971C85.6112 9.65817 85.5815 9.62278 85.5437 9.59792C85.5059 9.57305 85.4617 9.5598 85.4165 9.5598H80.7798C80.7494 9.55968 80.7194 9.55356 80.6915 9.54179C80.6636 9.53002 80.6382 9.51282 80.617 9.49121C80.5957 9.4696 80.5789 9.44399 80.5676 9.41586C80.5563 9.38773 80.5506 9.35764 80.551 9.32732V3.87506C80.5513 3.81397 80.5273 3.75526 80.4845 3.71171C80.4416 3.66816 80.3833 3.64331 80.3222 3.64258H79.4397V3.6463Z" fill="#696969"/>
<path fill-rule="evenodd" clip-rule="evenodd" d="M70.936 3.64844C70.6079 3.66424 70.2975 3.80168 70.0652 4.03395C69.8329 4.26623 69.6955 4.57668 69.6797 4.90479V9.36107V9.4178C69.6794 9.75616 69.81 10.0815 70.0442 10.3258C70.2784 10.57 70.598 10.7142 70.936 10.7281H75.755C76.0925 10.7123 76.4111 10.5674 76.6448 10.3234C76.8784 10.0793 77.0094 9.75476 77.0104 9.41687V9.36014V4.90758C76.997 4.57956 76.8609 4.26853 76.6291 4.03605C76.3973 3.80356 76.0867 3.66656 75.7587 3.65216H70.936V3.64844ZM71.8362 4.90758C71.6301 4.91702 71.435 5.00364 71.2898 5.15025C71.1445 5.29686 71.0598 5.49273 71.0523 5.69896V8.50274V8.53807C71.0513 8.75032 71.1323 8.95475 71.2783 9.10877C71.4244 9.26278 71.6242 9.3545 71.8362 9.36479H74.8576C75.0697 9.3545 75.2696 9.26282 75.4158 9.10883C75.562 8.95484 75.6432 8.75041 75.6425 8.53807V8.50274V5.69896C75.6341 5.49286 75.5489 5.29734 75.4037 5.15088C75.2584 5.00443 75.0636 4.91763 74.8576 4.90758H71.8362Z" fill="#696969"/>
<path fill-rule="evenodd" clip-rule="evenodd" d="M93.3055 10.5073C93.3052 10.5684 93.3292 10.6271 93.372 10.6707C93.4149 10.7142 93.4732 10.7391 93.5343 10.7398H94.4344C94.4648 10.7397 94.4948 10.7336 94.5227 10.7218C94.5507 10.71 94.576 10.6928 94.5973 10.6712C94.6185 10.6496 94.6353 10.624 94.6466 10.5959C94.6579 10.5677 94.6636 10.5376 94.6632 10.5073V5.02066V4.96486C94.6643 4.62931 94.5358 4.30631 94.3045 4.06322C94.0732 3.82013 93.7569 3.67573 93.4217 3.66016H88.7395C88.5674 3.66015 88.397 3.69425 88.2382 3.76049C88.0794 3.82673 87.9353 3.92379 87.8143 4.04607C87.6932 4.16835 87.5976 4.31341 87.5329 4.47287C87.4682 4.63234 87.4358 4.80303 87.4376 4.9751V5.03182V10.5185C87.4373 10.5796 87.4612 10.6383 87.5041 10.6818C87.5469 10.7254 87.6052 10.7502 87.6663 10.751H88.5665C88.5969 10.751 88.6269 10.7449 88.6549 10.7332C88.6829 10.7215 88.7083 10.7043 88.7296 10.6826C88.7509 10.661 88.7677 10.6354 88.7789 10.6072C88.7902 10.579 88.7958 10.5488 88.7953 10.5185V8.22803C88.795 8.16694 88.8189 8.10822 88.8618 8.06468C88.9046 8.02113 88.963 7.99628 89.024 7.99555H93.087C93.1173 7.99567 93.1473 8.00179 93.1752 8.01356C93.2032 8.02533 93.2285 8.04252 93.2498 8.06414C93.271 8.08575 93.2878 8.11136 93.2991 8.13949C93.3105 8.16762 93.3161 8.19771 93.3157 8.22803V10.5073H93.3055ZM88.7925 6.72897V5.59351C88.7912 5.3823 88.8739 5.17924 89.0223 5.02893C89.1707 4.87863 89.3727 4.79337 89.5839 4.7919H92.5178C92.729 4.79337 92.931 4.87863 93.0794 5.02893C93.2278 5.17924 93.3105 5.3823 93.3092 5.59351V6.72897C93.3095 6.79006 93.2856 6.84877 93.2427 6.89232C93.1999 6.93587 93.1415 6.96072 93.0805 6.96145H89.0213C88.9909 6.96145 88.9608 6.95542 88.9328 6.94369C88.9048 6.93196 88.8795 6.91478 88.8582 6.89314C88.8369 6.8715 88.8201 6.84584 88.8088 6.81765C88.7975 6.78947 88.792 6.75932 88.7925 6.72897Z" fill="#696969"/>
<path fill-rule="evenodd" clip-rule="evenodd" d="M112.32 10.7392C112.29 10.7392 112.26 10.7332 112.232 10.7215C112.204 10.7098 112.179 10.6926 112.157 10.6709C112.136 10.6493 112.119 10.6236 112.108 10.5954C112.097 10.5673 112.091 10.5371 112.092 10.5068V8.22375C112.092 8.16274 112.068 8.10413 112.025 8.06073C111.982 8.01733 111.924 7.99269 111.863 7.9922H107.758C107.728 7.99207 107.698 7.99799 107.67 8.00962C107.642 8.02124 107.616 8.03834 107.595 8.0599C107.574 8.08147 107.557 8.10707 107.546 8.1352C107.534 8.16334 107.529 8.19344 107.529 8.22375V10.5068C107.53 10.5679 107.506 10.6266 107.463 10.6701C107.42 10.7137 107.362 10.7385 107.301 10.7392H106.397C106.366 10.7391 106.336 10.733 106.308 10.7212C106.281 10.7095 106.255 10.6923 106.234 10.6707C106.213 10.649 106.196 10.6234 106.185 10.5953C106.173 10.5672 106.168 10.5371 106.168 10.5068V5.0201V4.9643C106.168 4.61588 106.306 4.28161 106.552 4.03489C106.798 3.78817 107.132 3.64918 107.48 3.64844H112.211C112.548 3.66489 112.866 3.81032 113.1 4.05468C113.333 4.29904 113.464 4.62367 113.464 4.96152V5.01731V10.504C113.465 10.5651 113.441 10.6238 113.398 10.6673C113.355 10.7109 113.297 10.7357 113.236 10.7365H112.32V10.7392ZM107.529 5.59295V6.72841C107.529 6.75869 107.535 6.78873 107.546 6.8168C107.558 6.84488 107.574 6.87044 107.596 6.89203C107.617 6.91362 107.642 6.93081 107.67 6.94263C107.698 6.95444 107.728 6.96065 107.758 6.96089H111.863C111.893 6.96077 111.923 6.95465 111.951 6.94288C111.979 6.9311 112.004 6.91391 112.026 6.8923C112.047 6.87069 112.064 6.84508 112.075 6.81695C112.086 6.78882 112.092 6.75873 112.092 6.72841V5.59295C112.092 5.38075 112.008 5.17714 111.858 5.02684C111.708 4.87653 111.505 4.79183 111.293 4.79134H108.327C108.222 4.79134 108.118 4.81209 108.021 4.85242C107.924 4.89275 107.836 4.95186 107.762 5.02635C107.688 5.10083 107.629 5.18923 107.589 5.28646C107.549 5.3837 107.529 5.48785 107.529 5.59295Z" fill="#696969"/>
<path d="M98.054 3.64845C98.0871 3.64804 98.1198 3.6551 98.1497 3.66911C98.1797 3.68312 98.2061 3.70371 98.227 3.72936L102.265 8.54553C102.295 8.5811 102.336 8.6064 102.381 8.618C102.427 8.6296 102.475 8.62694 102.518 8.61037C102.562 8.5938 102.6 8.56414 102.626 8.52541C102.652 8.48669 102.666 8.44078 102.666 8.39395V3.88094C102.665 3.81985 102.689 3.76113 102.732 3.71758C102.775 3.67404 102.833 3.64919 102.894 3.64845H103.791C103.821 3.64845 103.851 3.65449 103.879 3.66622C103.907 3.67795 103.933 3.69513 103.954 3.71677C103.975 3.73841 103.992 3.76407 104.003 3.79225C104.015 3.82044 104.02 3.85059 104.02 3.88094V10.5077C104.02 10.5688 103.996 10.6275 103.953 10.6711C103.91 10.7146 103.852 10.7395 103.791 10.7402H102.675C102.673 10.74 102.671 10.7391 102.67 10.7378C102.668 10.7364 102.668 10.7347 102.667 10.7328C102.667 10.7328 102.667 10.7328 102.667 10.7262L98.5589 5.94541C98.5282 5.91037 98.4876 5.88554 98.4424 5.87425C98.3971 5.86296 98.3496 5.86574 98.306 5.88222C98.2624 5.8987 98.2249 5.9281 98.1985 5.96648C98.172 6.00486 98.158 6.0504 98.1581 6.09699V10.5114C98.1584 10.5725 98.1345 10.6312 98.0916 10.6748C98.0488 10.7183 97.9905 10.7432 97.9294 10.7439H97.0218C96.9914 10.7438 96.9614 10.7377 96.9335 10.7259C96.9055 10.7141 96.8802 10.6969 96.8589 10.6753C96.8377 10.6537 96.8209 10.6281 96.8096 10.6C96.7983 10.5718 96.7926 10.5417 96.793 10.5114V3.88094C96.7927 3.81985 96.8166 3.76113 96.8595 3.71758C96.9023 3.67404 96.9607 3.64919 97.0218 3.64845H98.054Z" fill="#696969"/>
<path d="M39.4483 10.9805C39.5037 10.9249 39.5695 10.8807 39.6419 10.8506C39.7144 10.8204 39.7921 10.8048 39.8705 10.8047H54.5208C54.5801 10.8042 54.6381 10.8215 54.6875 10.8542C54.7369 10.8869 54.7754 10.9336 54.7981 10.9884C54.8207 11.0431 54.8266 11.1034 54.8148 11.1614C54.803 11.2195 54.7741 11.2727 54.7319 11.3143L51.837 14.2092C51.7817 14.2649 51.7159 14.3091 51.6435 14.3393C51.571 14.3694 51.4933 14.385 51.4148 14.385H36.7645C36.7057 14.3844 36.6484 14.3665 36.5997 14.3335C36.551 14.3005 36.5132 14.2539 36.4909 14.1994C36.4687 14.145 36.463 14.0852 36.4746 14.0275C36.4862 13.9699 36.5146 13.9169 36.5562 13.8754L39.4483 10.9805Z" fill="#696969"/>
<path d="M39.4493 0.175769C39.5046 0.120165 39.5704 0.0760201 39.6429 0.0458618C39.7153 0.0157035 39.793 0.000121808 39.8715 8.90145e-06H54.5218C54.581 -0.000449272 54.639 0.0167894 54.6884 0.0495142C54.7378 0.0822391 54.7763 0.128962 54.799 0.183699C54.8217 0.238435 54.8275 0.298693 54.8157 0.356757C54.8039 0.414821 54.7751 0.468048 54.7329 0.509618L51.8379 3.40081C51.7827 3.45662 51.7169 3.50096 51.6445 3.53129C51.572 3.56161 51.4943 3.57731 51.4158 3.5775H36.7654C36.7064 3.57714 36.6489 3.5593 36.6 3.52625C36.5511 3.49319 36.5132 3.44639 36.4909 3.39176C36.4686 3.33713 36.463 3.27713 36.4748 3.21932C36.4866 3.16151 36.5152 3.10849 36.5571 3.06696L39.4493 0.175769Z" fill="#696969"/>
<path d="M51.837 5.54295C51.7817 5.48726 51.7159 5.44306 51.6435 5.4129C51.571 5.38273 51.4933 5.3672 51.4148 5.36719H36.7645C36.7057 5.36773 36.6484 5.38563 36.5997 5.41864C36.551 5.45165 36.5132 5.4983 36.4909 5.55274C36.4687 5.60718 36.463 5.66698 36.4746 5.72463C36.4862 5.78228 36.5146 5.83522 36.5562 5.8768L39.4483 8.77357C39.5037 8.82917 39.5695 8.87331 39.6419 8.90347C39.7144 8.93363 39.7921 8.94921 39.8705 8.94933H54.5208C54.5801 8.94952 54.638 8.93208 54.6873 8.89924C54.7366 8.86639 54.775 8.81962 54.7977 8.76488C54.8203 8.71013 54.8261 8.6499 54.8144 8.59183C54.8027 8.53376 54.774 8.48049 54.7319 8.43879L51.837 5.54295Z" fill="#696969"/>
<path d="M0.750122 10.6348V4.35196H3.10724C3.58724 4.35196 3.97152 4.41625 4.26009 4.54482C4.55152 4.67053 4.77866 4.86624 4.94151 5.13196C5.10723 5.39481 5.19008 5.67052 5.19008 5.95909C5.19008 6.22766 5.11723 6.48052 4.97151 6.71766C4.8258 6.9548 4.6058 7.14622 4.31152 7.29194C4.69152 7.40336 4.98294 7.59336 5.1858 7.86193C5.39151 8.1305 5.49437 8.44764 5.49437 8.81335C5.49437 9.10764 5.43151 9.38192 5.3058 9.6362C5.18294 9.88763 5.03009 10.0819 4.84723 10.2191C4.66437 10.3562 4.43438 10.4605 4.15724 10.5319C3.88295 10.6005 3.54581 10.6348 3.14582 10.6348H0.750122ZM1.58154 6.99194H2.9401C3.30867 6.99194 3.57296 6.96765 3.73295 6.91908C3.94438 6.85623 4.10295 6.75194 4.20866 6.60623C4.31723 6.46052 4.37152 6.27766 4.37152 6.05766C4.37152 5.84909 4.32152 5.66624 4.22152 5.50909C4.12152 5.3491 3.97867 5.24053 3.79295 5.18338C3.60724 5.12338 3.28867 5.09338 2.83725 5.09338H1.58154V6.99194ZM1.58154 9.89334H3.14582C3.41438 9.89334 3.60295 9.88334 3.71153 9.86334C3.90295 9.82906 4.06295 9.77192 4.19152 9.69192C4.32009 9.61192 4.4258 9.4962 4.50866 9.34478C4.59152 9.19049 4.63295 9.01335 4.63295 8.81335C4.63295 8.57907 4.57295 8.37621 4.45295 8.20479C4.33295 8.0305 4.16581 7.90907 3.95152 7.8405C3.7401 7.76908 3.43438 7.73336 3.03439 7.73336H1.58154V9.89334ZM9.5229 10.6348V9.9662C9.16862 10.4805 8.6872 10.7376 8.07863 10.7376C7.81006 10.7376 7.55864 10.6862 7.32435 10.5833C7.09292 10.4805 6.92007 10.3519 6.80578 10.1976C6.69436 10.0405 6.61579 9.84906 6.57007 9.62335C6.53864 9.47192 6.52293 9.23192 6.52293 8.90335V6.08338H7.29435V8.60764C7.29435 9.01049 7.31007 9.28192 7.34149 9.42192C7.39007 9.62477 7.49292 9.78477 7.65006 9.90191C7.8072 10.0162 8.00149 10.0733 8.23292 10.0733C8.46434 10.0733 8.68148 10.0148 8.88434 9.89763C9.08719 9.77763 9.23005 9.6162 9.31291 9.41335C9.39862 9.20763 9.44148 8.91049 9.44148 8.52193V6.08338H10.2129V10.6348H9.5229ZM11.43 5.2391V4.35196H12.2015V5.2391H11.43ZM11.43 10.6348V6.08338H12.2015V10.6348H11.43ZM13.3629 10.6348V4.35196H14.1343V10.6348H13.3629ZM17.0186 9.94477L17.13 10.6262C16.9128 10.6719 16.7186 10.6948 16.5471 10.6948C16.2671 10.6948 16.05 10.6505 15.8957 10.5619C15.7414 10.4733 15.6329 10.3576 15.57 10.2148C15.5071 10.0691 15.4757 9.76477 15.4757 9.30192V6.68337H14.91V6.08338H15.4757V4.95624L16.2428 4.49339V6.08338H17.0186V6.68337H16.2428V9.34478C16.2428 9.56477 16.2557 9.7062 16.2814 9.76906C16.31 9.83192 16.3543 9.88191 16.4143 9.91906C16.4771 9.9562 16.5657 9.97477 16.68 9.97477C16.7657 9.97477 16.8786 9.96477 17.0186 9.94477ZM20.4042 10.6348V6.68337H19.7228V6.08338H20.4042V5.59909C20.4042 5.29338 20.4314 5.06624 20.4857 4.91767C20.56 4.71767 20.69 4.55625 20.8757 4.43339C21.0642 4.30768 21.3271 4.24482 21.6642 4.24482C21.8814 4.24482 22.1214 4.27053 22.3842 4.32196L22.2685 4.99481C22.1085 4.96624 21.9571 4.95196 21.8142 4.95196C21.5799 4.95196 21.4142 5.00196 21.3171 5.10196C21.2199 5.20195 21.1714 5.3891 21.1714 5.66338V6.08338H22.0585V6.68337H21.1714V10.6348H20.4042ZM22.3757 8.35907C22.3757 7.51622 22.6099 6.89194 23.0785 6.48623C23.4699 6.14909 23.9471 5.98052 24.5099 5.98052C25.1356 5.98052 25.6471 6.18623 26.0442 6.59766C26.4413 7.00623 26.6399 7.57193 26.6399 8.29479C26.6399 8.88049 26.5513 9.34192 26.3742 9.67906C26.1999 10.0133 25.9442 10.2733 25.6071 10.4591C25.2728 10.6448 24.9071 10.7376 24.5099 10.7376C23.8728 10.7376 23.3571 10.5333 22.9628 10.1248C22.5714 9.7162 22.3757 9.12764 22.3757 8.35907ZM23.1685 8.35907C23.1685 8.94192 23.2956 9.37906 23.5499 9.67049C23.8042 9.95906 24.1242 10.1033 24.5099 10.1033C24.8928 10.1033 25.2113 9.95763 25.4656 9.6662C25.7199 9.37478 25.847 8.93049 25.847 8.33336C25.847 7.7705 25.7185 7.34479 25.4613 7.05622C25.2071 6.7648 24.8899 6.61909 24.5099 6.61909C24.1242 6.61909 23.8042 6.76337 23.5499 7.05194C23.2956 7.34051 23.1685 7.77622 23.1685 8.35907ZM27.5399 10.6348V6.08338H28.2342V6.77337C28.4113 6.45052 28.5742 6.23766 28.7227 6.1348C28.8742 6.03195 29.0399 5.98052 29.2199 5.98052C29.4799 5.98052 29.7442 6.06338 30.0127 6.22909L29.747 6.9448C29.5584 6.83337 29.3699 6.77766 29.1813 6.77766C29.0127 6.77766 28.8613 6.82908 28.727 6.93194C28.5927 7.03194 28.497 7.17194 28.4399 7.35194C28.3542 7.62622 28.3113 7.92622 28.3113 8.25193V10.6348H27.5399Z" fill="#696969"/>
</svg>
