<svg width="138" height="139" viewBox="0 0 138 139" fill="none" xmlns="http://www.w3.org/2000/svg">
<mask id="path-1-inside-1_80_2379" fill="white">
<path d="M0.378906 69.3665C0.378906 31.4275 31.1345 0.671875 69.0735 0.671875C107.012 0.671875 137.768 31.4275 137.768 69.3665C137.768 107.305 107.012 138.061 69.0735 138.061C31.1345 138.061 0.378906 107.305 0.378906 69.3665Z"/>
</mask>
<path d="M0.378906 69.3665C0.378906 31.4275 31.1345 0.671875 69.0735 0.671875C107.012 0.671875 137.768 31.4275 137.768 69.3665C137.768 107.305 107.012 138.061 69.0735 138.061C31.1345 138.061 0.378906 107.305 0.378906 69.3665Z" fill="url(#paint0_linear_80_2379)"/>
<path d="M69.0735 138.061V136.098C32.2185 136.098 2.34161 106.221 2.34161 69.3665H0.378906H-1.5838C-1.5838 108.389 30.0505 140.024 69.0735 140.024V138.061ZM137.768 69.3665H135.805C135.805 106.221 105.928 136.098 69.0735 136.098V138.061V140.024C108.096 140.024 139.731 108.389 139.731 69.3665H137.768ZM69.0735 0.671875V2.63458C105.928 2.63458 135.805 32.5115 135.805 69.3665H137.768H139.731C139.731 30.3435 108.096 -1.29083 69.0735 -1.29083V0.671875ZM69.0735 0.671875V-1.29083C30.0505 -1.29083 -1.5838 30.3435 -1.5838 69.3665H0.378906H2.34161C2.34161 32.5115 32.2185 2.63458 69.0735 2.63458V0.671875Z" fill="url(#paint1_linear_80_2379)" fill-opacity="0.3" mask="url(#path-1-inside-1_80_2379)"/>
<path d="M69.0759 97.9896C84.8838 97.9896 97.6986 85.1748 97.6986 69.3669C97.6986 53.559 84.8838 40.7441 69.0759 40.7441C53.268 40.7441 40.4531 53.559 40.4531 69.3669C40.4531 85.1748 53.268 97.9896 69.0759 97.9896Z" stroke="#00D5BE" stroke-width="5.72455" stroke-linecap="round" stroke-linejoin="round"/>
<path d="M60.4883 69.3671L66.2128 75.0917L77.6619 63.6426" stroke="#00D5BE" stroke-width="5.72455" stroke-linecap="round" stroke-linejoin="round"/>
<defs>
<linearGradient id="paint0_linear_80_2379" x1="0.378906" y1="0.671875" x2="137.768" y2="138.061" gradientUnits="userSpaceOnUse">
<stop stop-color="#00BBA7" stop-opacity="0.2"/>
<stop offset="1" stop-color="#00B8DB" stop-opacity="0.2"/>
</linearGradient>
<linearGradient id="paint1_linear_80_2379" x1="69.0735" y1="0.671875" x2="0.378905" y2="83.8871" gradientUnits="userSpaceOnUse">
<stop stop-color="white"/>
<stop offset="0.552885" stop-color="#00BBA7"/>
<stop offset="1" stop-color="white"/>
</linearGradient>
</defs>
</svg>
