<svg width="39" height="13" viewBox="0 0 39 13" fill="none" xmlns="http://www.w3.org/2000/svg">
<path d="M14.7981 0.224198L9.69541 12.4023H6.36616L3.85543 2.68224C3.70277 2.08438 3.57122 1.86506 3.10675 1.61325C2.34996 1.20222 1.09946 0.817184 0 0.57674L0.074705 0.224198H5.43398C5.78419 0.223847 6.123 0.348749 6.38924 0.576357C6.65548 0.803966 6.83161 1.11929 6.88585 1.46541L8.21268 8.513L11.49 0.224198H14.7981ZM27.8438 8.42689C27.8568 5.21177 23.4005 5.03469 23.4314 3.59853C23.4411 3.16151 23.8569 2.69687 24.7663 2.57827C25.8322 2.47701 26.9055 2.66561 27.8731 3.12414L28.4252 0.540998C27.4833 0.186742 26.4856 0.00353617 25.4793 0C22.366 0 20.1752 1.65711 20.1557 4.02743C20.1362 5.78039 21.7197 6.75679 22.9133 7.34165C24.1411 7.93788 24.5536 8.32129 24.5471 8.85417C24.539 9.67298 23.5694 10.032 22.6632 10.0466C21.0798 10.071 20.1622 9.61936 19.4282 9.27819L18.8581 11.9458C19.5938 12.2837 20.9515 12.5794 22.3595 12.5924C25.6677 12.5924 27.8325 10.958 27.8438 8.42689ZM36.063 12.4023H38.9765L36.4349 0.224198H33.7455C33.4582 0.221534 33.1767 0.305296 32.9375 0.464623C32.6983 0.623949 32.5125 0.851489 32.4041 1.11774L27.6798 12.4023H30.9863L31.6441 10.5828H35.6846L36.063 12.4023ZM32.5503 8.08735L34.2068 3.51405L35.1617 8.08735H32.5503ZM19.2982 0.224198L16.6949 12.4023H13.5443L16.1509 0.224198H19.2982Z" fill="white"/>
</svg>
