<svg width="123" height="47" viewBox="0 0 123 47" fill="none" xmlns="http://www.w3.org/2000/svg">
<path d="M0 10.8074C8.19991 10.6888 16.4001 10.5701 24.6 10.4515C32.7999 10.333 41.0001 10.2143 49.2 10.0957C57.3999 9.97721 65.6001 9.85847 73.8 9.73994C81.9999 9.6214 90.2001 0.474339 98.4 0.355805C106.6 0.237271 114.8 0.118534 123 0V46.3878C114.8 46.3878 106.6 46.3878 98.4 46.3878C90.2001 46.3878 81.9999 46.3878 73.8 46.3878C65.6001 46.3878 57.3999 46.3878 49.2 46.3878C41.0001 46.3878 32.7999 46.3878 24.6 46.3878C16.4001 46.3878 8.19991 46.3878 0 46.3878V10.8074Z" fill="url(#paint0_linear_469_1377)"/>
<defs>
<linearGradient id="paint0_linear_469_1377" x1="0" y1="9.02846" x2="0" y2="46.388" gradientUnits="userSpaceOnUse">
<stop offset="0.05" stop-color="#00F58C" stop-opacity="0.3"/>
<stop offset="0.95" stop-color="#00F58C" stop-opacity="0"/>
</linearGradient>
</defs>
</svg>
